<svg xmlns="http://www.w3.org/2000/svg" viewBox="0 0 314.12 386.56"><defs><style>.cls-1{fill:#f26e21;}.cls-2{fill:#231f20;}</style></defs><g id="Layer_2" data-name="Layer 2"><g id="Layer_1-2" data-name="Layer 1"><path id="fire" class="cls-1" d="M10.89,130.28s35.35,10.23,21.76,86.85c-.59,72,73.48,79.48,73.48,79.48S257.79,270,245.94,169.76c-20.58-71.92-26.53-63.09-14.73-93.13C218.32,75,195.3,101,195.3,101s9.26-17.81-6.58-44.58c-2.61-6.7,5.8,40.17-20.7,20.87C153.71,55.94,191.43,61,177.94,14.12,164.49,46.58,120.57,58.66,116.51,80c-5-23.79-17.67-32.19-17.67-32.19S109,89.8,75,105.33s-24.76,45.8-24.76,45.8S15.15,127.3,10.89,130.28Z"/><g id="pan"><path d="M237,133.54s-4.49-44.06,52.59-74.86C331.22,20.59,308.13,1.05,304.28.05s-39.11,12.26-59.31,52-38.48,60.29-53.55,62.27-48.09,3-65.08,16.9c-2.73,5.46,4.49,6.62,4.49,6.62s49.51-29.59,89.09-7.06c36.16,25.17,12.22,70.66,12.22,70.66s3.21-64-79.08-38.65c10,13.25,26.29,35.34,26.29,35.34s10.26,18.77-13.47,34c-16,13.91-20.73,25.84-44.67,14.8-14.75-16.57-29.93-35.56-29.93-35.56s-28.43,41.74,0,75.3c-44.67-4.41-46.6-66-18-98.48.64-5.08-3.85-7.51-3.85-7.51s-29.93,37.1-22.23,80.16,68.83,58.29,120.34,31.57S283.23,197,237,133.54Z"/><path d="M172.08,201.44l-44-56.09s-8.77-12.59-32.28-9c-58.35-76.63-73.1-95.84-73.1-95.84s-4.49-6.62-10.9-3.75S.65,45.54.65,45.54-2.34,51.72,4.5,61s73.74,88.32,73.74,88.32-5.55,27.39,4.28,38,44.24,54.1,44.24,54.1a12.26,12.26,0,0,0,15.61,0c8.33-6.41,29.71-25.18,29.71-25.18S177.53,208.38,172.08,201.44Z"/><path class="cls-1" d="M110.93,164.74l3-2.61a2,2,0,0,1,2.81.25l33.87,41.55a2.11,2.11,0,0,1-.24,2.9l-3,2.61a2,2,0,0,1-2.81-.25l-33.87-41.55A2.11,2.11,0,0,1,110.93,164.74Z"/><path class="cls-1" d="M99.17,175l3-2.61a2,2,0,0,1,2.81.25l33.87,41.55a2.11,2.11,0,0,1-.24,2.9l-3,2.61a2,2,0,0,1-2.81-.25L98.93,177.88A2.12,2.12,0,0,1,99.17,175Z"/></g><path class="cls-2" d="M43.79,367.29h9.63a19.26,19.26,0,1,1-38.51,0V341.8a19.26,19.26,0,1,1,32.87,13.62L41,348.61a9.63,9.63,0,1,0-16.43-6.81v25.49a9.63,9.63,0,1,0,19.25,0Z"/><path class="cls-2" d="M68.57,332.18v17.55h13.6v9.63H68.57v17.56H85.85v9.64H58.94v-64H85.85v9.64Z"/><path class="cls-2" d="M126.28,322.88l-15.34,63.67h-8.27L87.32,322.88h9.91l9.57,39.71,9.57-39.71Z"/><path class="cls-2" d="M129.89,386.55v-64h9.64v64Z"/><path class="cls-2" d="M174.71,367.29h9.63a19.26,19.26,0,1,1-38.52,0V341.8a19.26,19.26,0,1,1,32.88,13.62l-6.81-6.81a9.63,9.63,0,1,0-16.43-6.81v25.49a9.63,9.63,0,1,0,19.25,0Z"/><path class="cls-2" d="M228.41,322.52v64h-9.63V359.38H199.52v27.18h-9.66v-64h9.66v27.19h19.26V322.52Z"/><path class="cls-2" d="M245.45,332.18v17.55H259v9.63H245.45v17.56h17.27v9.64H235.81v-64h26.91v9.64Z"/></g></g></svg>