<svg xmlns="http://www.w3.org/2000/svg" viewBox="0 0 373.53 282.08"><defs><style>.cls-1{fill:#69372a;}.cls-2{fill:#faaa3e;}.cls-3{fill:#ec2f24;}.cls-4{fill:#51b748;}</style></defs><g id="Layer_2" data-name="Layer 2"><g id="Layer_1-2" data-name="Layer 1"><path class="cls-1" d="M69.12,89.8s128.49-25.11,234.82-5.61c.59,33.08-59.07,12.7-59.07,12.7s-45.2-25.11-130.26,8.56C80.64,113.13,69.12,89.8,69.12,89.8Z"/><path class="cls-1" d="M306.25,189s-129.1,21.71-234.89-.58c.29-33.08,59.39-11.14,59.39-11.14s44.52,26.29,130.44-5.13C295.35,165.37,306.25,189,306.25,189Z"/><path class="cls-2" d="M60.29,206.87S73.55,266,157.14,265.65c0,0,76.21-7.09,85.07-6.2s71.16-4.43,72.5-56.12c0-9.9-28.79-4.85-28.79-4.85s-139.56,4.92-210.6-2.83C61.74,193,59.3,200.3,60.29,206.87Z"/><path class="cls-2" d="M61.74,79.2s-27.47-58.92,105.89-78c161.71-12.4,145.76,73.55,145.76,73.55s-3.54,8-14.77,3.25-195.24-9.71-224.18,1.5C64.54,83.63,61.74,79.2,61.74,79.2Z"/><path class="cls-3" d="M85.78,159A16.66,16.66,0,0,1,77,160a12.17,12.17,0,0,1-4-1.34,11.8,11.8,0,0,1-3.34-2.61,11.62,11.62,0,0,1-2-2.79,21.29,21.29,0,0,1-1.27-3.16,23.07,23.07,0,0,1-1-4.77q-.24-2.46-.24-5,0-2.73.24-5.37t.73-5.32a38.2,38.2,0,0,1,1.09-4.4,17.08,17.08,0,0,1,1.88-4.1,15,15,0,0,1,2.58-3.34,13.12,13.12,0,0,1,3.44-2.43,14.1,14.1,0,0,1,6.68-1.4,14.54,14.54,0,0,1,4.79,1.09,15.1,15.1,0,0,1,4.2,2.56,7.67,7.67,0,0,1,2.42,3.46,18.91,18.91,0,0,1,.89,3.52c.18,1.21.35,2.41.51,3.58,0,.12,0,.31,0,.55a.83.83,0,0,1-.15.49.43.43,0,0,1-.43.3l-1.27.09a10.08,10.08,0,0,0-1.28.15c-.16,0-.46.09-.91.15l-1.46.22-1.48.21a9.24,9.24,0,0,1-.94.09c-.45,0-.7-.24-.76-.73s-.14-.95-.22-1.4a14.3,14.3,0,0,0-.54-2.82,5,5,0,0,0-1.46-2.34,3.61,3.61,0,0,0-3.34-.79,2.89,2.89,0,0,0-1.12.49,7.85,7.85,0,0,0-1,.85A10.48,10.48,0,0,0,76,127.93a44.46,44.46,0,0,0-1.13,4.77,41.22,41.22,0,0,0-.61,7.07,19.73,19.73,0,0,0,1.22,6.9,8,8,0,0,0,.85,1.67,6.65,6.65,0,0,0,1.27,1.42,5.54,5.54,0,0,0,3,1.4,4.37,4.37,0,0,0,2.31-.55,7.2,7.2,0,0,0,3.22-2.85,17.58,17.58,0,0,0,2.31-5,.59.59,0,0,1,.48-.43.6.6,0,0,1,.61.25,2.67,2.67,0,0,1,1,.66c.45.41.75.67.91.79L93,145.33l1.55,1.34a.59.59,0,0,1,.3.54.9.9,0,0,1,.12.85q-.84,2.13-1.88,4.16A16.32,16.32,0,0,1,90.52,156a10.78,10.78,0,0,1-2.19,1.79A13.69,13.69,0,0,1,85.78,159Z"/><path class="cls-3" d="M110.62,159.48a12.46,12.46,0,0,1-2.88.27c-1,0-2-.07-2.95-.15l-.6,0-.89-.09a8.07,8.07,0,0,1-.82-.15,1.78,1.78,0,0,1-.54-.21,1.74,1.74,0,0,1-.34-.55,3.28,3.28,0,0,1-.21-.82c0-.3-.08-.6-.12-.88a5.34,5.34,0,0,1-.06-.73q-.24-3.88-.21-7.77c0-2.59.07-5.19.15-7.78s.22-5.25.42-7.86.43-5.23.67-7.87l-.79.18a1.88,1.88,0,0,0-.67.25.68.68,0,0,1-.63.15.81.81,0,0,1-.52-.4,3,3,0,0,1-.36-1.18c0-.42-.09-.86-.13-1.31q-.12-1.58-.09-3.21a10.45,10.45,0,0,1,.58-3.22.8.8,0,0,1,.3-.28l.37-.15a31.65,31.65,0,0,1,4.64-1c1.56-.2,3.13-.34,4.71-.43,1.82-.12,3.65-.17,5.5-.15a38.85,38.85,0,0,1,5.49.46,31.15,31.15,0,0,1,3.47.79,15.38,15.38,0,0,1,3.22,1.33c.68.41,1.36.85,2,1.34a6.66,6.66,0,0,1,1.67,1.76,9,9,0,0,1,1.31,3,13.45,13.45,0,0,1,.39,3.19,11,11,0,0,1-.7,3.85,11.83,11.83,0,0,1-1.91,3.43,12.26,12.26,0,0,1-2.31,2c-.85.57-1.72,1.09-2.61,1.58-1.21.65-2.45,1.23-3.71,1.76s-2.51,1.07-3.76,1.64q2.55,2.79,4.92,5.71t4.86,5.83a7.65,7.65,0,0,0,.57.67c.31.32.62.67.95,1.06s.63.74.94,1.06a7.65,7.65,0,0,1,.57.67.73.73,0,0,1,.19.73,1.79,1.79,0,0,1-.46.67,3.45,3.45,0,0,1-.85.54c-.34.17-.66.31-.94.43a17.28,17.28,0,0,1-1.76.76l-1.82.64-1,.3a1.1,1.1,0,0,1-1-.06,28.27,28.27,0,0,1-3.46-3.46c-1.05-1.26-2.13-2.47-3.22-3.65l-1-1-1.7-1.67-1.73-1.67-1.07-1c0,2,.1,4,.19,6s.26,4,.54,6a.66.66,0,0,1-.18.61A.56.56,0,0,1,110.62,159.48Zm.73-35c-.08,1.42-.16,2.81-.24,4.19l-.24,4.13a36.86,36.86,0,0,0,4.25-.61,13.21,13.21,0,0,0,3.95-1.46,6.42,6.42,0,0,0,1.45-1.06,3.67,3.67,0,0,0,1-1.49,2.51,2.51,0,0,0-.18-1.94,3.38,3.38,0,0,0-1.27-1.58,4.44,4.44,0,0,0-1.43-.58,13.13,13.13,0,0,0-1.55-.21,12.44,12.44,0,0,0-2.85.09C113.23,124.12,112.28,124.3,111.35,124.5Z"/><path class="cls-3" d="M153.68,160.15q-4,0-8-.3a74.78,74.78,0,0,0-8-.19l-.55,0-.54,0A.54.54,0,0,1,136,159a.3.3,0,0,0,0-.22.66.66,0,0,1,0-.21,12.57,12.57,0,0,1,0-1.94q.09-1,.21-1.95a7.52,7.52,0,0,1,.25-1.36.81.81,0,0,1,.85-.7c.48,0,1,.06,1.45.06h1.46c-.08-2.11-.09-4.2,0-6.29s.13-4.2.21-6.34q0-.56.06-1.83c0-.85.1-1.84.16-3s.12-2.34.18-3.62.11-2.48.15-3.61.08-2.13.12-3,.08-1.45.12-1.82h-.85l-1.3,0-1.28,0a2,2,0,0,1-.82-.12,1.09,1.09,0,0,1-.73-.73,6.25,6.25,0,0,1-.15-1.36q0-.94,0-2c0-.73.05-1.41.09-2.06s.08-1.14.12-1.46a.9.9,0,0,1,.85-.67l3.22,0,3.28,0c2.15.08,4.27.19,6.38.33s4.23.22,6.38.22a.58.58,0,0,1,.6.51,7.75,7.75,0,0,1,.19,1q.06,1.28,0,2.55c0,.24-.08.56-.12,1s-.11.82-.19,1.24a6.1,6.1,0,0,1-.33,1.16,1.79,1.79,0,0,1-.52.76,2.74,2.74,0,0,1-1.06.21,13.18,13.18,0,0,1-1.52,0c-.54,0-1.07-.09-1.58-.15a10.47,10.47,0,0,0-1.12-.09c-.08,1.13-.15,2.24-.21,3.34s-.14,2.2-.22,3.34c-.2,3.8-.37,7.58-.51,11.32s-.13,7.53,0,11.33h.88l1.21,0a10.4,10.4,0,0,1,1.19.12,1.8,1.8,0,0,1,.79.28.76.76,0,0,1,.3.45c0,.18.08.38.12.58a22.09,22.09,0,0,1,.09,2.58q0,1.31-.15,2.58a.91.91,0,0,1-.15.52A.52.52,0,0,1,153.68,160.15Z"/><path class="cls-3" d="M180.29,159.06a17.49,17.49,0,0,1-6.62.94,19.39,19.39,0,0,1-6.62-1.43,11.22,11.22,0,0,1-3.22-2,9.86,9.86,0,0,1-2.31-3,10,10,0,0,1-1.16-4.31,15.48,15.48,0,0,1,.16-3.53,22,22,0,0,1,.82-3.46,1.52,1.52,0,0,1,.42-.7.73.73,0,0,1,.73-.15,13.6,13.6,0,0,0,3.25.82c1.11.14,2.24.32,3.37.52l.94.24a.63.63,0,0,1,.27.85l-.12.24a12.56,12.56,0,0,0-.24,1.74,5.08,5.08,0,0,0,.18,1.73,4.12,4.12,0,0,0,1.58,2.3,4.06,4.06,0,0,0,2.55.79,3.71,3.71,0,0,0,2-.42,4.7,4.7,0,0,0,1.52-1.28,5.25,5.25,0,0,0,.88-1.79,4.89,4.89,0,0,0,.09-2.09,5,5,0,0,0-.52-1.61,8.4,8.4,0,0,0-.94-1.43,13.07,13.07,0,0,0-2-1.94c-.73-.57-1.49-1.12-2.28-1.64s-1.6-1-2.43-1.49-1.63-1-2.4-1.49a16.89,16.89,0,0,1-3-2.46,13.69,13.69,0,0,1-2.31-3.13,12.63,12.63,0,0,1-1.36-4.55,10.43,10.43,0,0,1,.51-4.68,9.59,9.59,0,0,1,1.95-3.25,10.58,10.58,0,0,1,3-2.34,20,20,0,0,1,6.93-1.82,18.49,18.49,0,0,1,7,.73,14,14,0,0,1,5,2.67,16.24,16.24,0,0,1,2.28,2.55,21.19,21.19,0,0,1,1.79,3,1.48,1.48,0,0,1,.25.42.75.75,0,0,1,.06.49,1.07,1.07,0,0,1-.4.49l-.51.36a24.81,24.81,0,0,0-4,3.16,7.09,7.09,0,0,1-.73.73c-.33.28-.59.4-.79.36l-.37-.15a.53.53,0,0,1-.3-.21,1.28,1.28,0,0,1-.24-.49,8,8,0,0,0-.67-1.15,17.27,17.27,0,0,0-1.09-1.46,16.18,16.18,0,0,0-1.25-1.34c-.42-.4-.76-.7-1-.91a8.68,8.68,0,0,0-1.22-.6,7.13,7.13,0,0,0-1.51-.46,6.89,6.89,0,0,0-1.55-.12,3.13,3.13,0,0,0-1.25.27,4.37,4.37,0,0,0-2.09,2.13,3.12,3.12,0,0,0,0,2.85,3.37,3.37,0,0,0,.7,1.1,7.44,7.44,0,0,0,.94.85,16.09,16.09,0,0,0,2.61,1.79c.93.5,1.82,1,2.67,1.61,1.3.89,2.55,1.82,3.77,2.79a29.48,29.48,0,0,1,3.4,3.22,17,17,0,0,1,1.88,2.25,15.08,15.08,0,0,1,1.46,2.61,1.84,1.84,0,0,0,0,.24.42.42,0,0,0,.09.24,9.06,9.06,0,0,1,.85,4.62,12,12,0,0,1-1.13,4.13,12.79,12.79,0,0,1-2.39,3.52,14.05,14.05,0,0,1-2.74,2.13A16,16,0,0,1,180.29,159.06Z"/><path class="cls-3" d="M206.52,159.6a5.45,5.45,0,0,1-.91.09l-1.4.06-1.39.07-.91,0q-1.09,0-2.19-.06c-.73,0-1.46-.13-2.19-.25a.81.81,0,0,1-.51-.36,1,1,0,0,1-.22-.61v-5.68c0-1.88,0-3.77.13-5.68q.06-.6.15-2.46c.06-1.23.13-2.55.21-3.94s.16-2.72.24-3.95.13-2,.13-2.4q.12-2.55.39-5c.18-1.64.35-3.31.52-5l-.7.18-1,.27a7.75,7.75,0,0,1-1,.22,5.61,5.61,0,0,1-.7.06.77.77,0,0,1-.42-.28,4.12,4.12,0,0,1-.3-.39,3.91,3.91,0,0,1-.4-1.31c-.06-.46-.11-.92-.15-1.36a8,8,0,0,1-.06-1.16c0-.52,0-1.08,0-1.67s0-1.13.09-1.64a5.18,5.18,0,0,1,.18-1.12,1,1,0,0,1,.37-.31,2.34,2.34,0,0,1,.48-.18l7.29-.73a40.35,40.35,0,0,1,7.29-.06,44.57,44.57,0,0,1,4.77.76,21.31,21.31,0,0,1,4.58,1.55,10.54,10.54,0,0,1,2.58,1.76,13.35,13.35,0,0,1,2,2.37,11.9,11.9,0,0,1,1.09,2.34,19.62,19.62,0,0,1,.67,2.46,14.87,14.87,0,0,1,.33,2.82,11.53,11.53,0,0,1-.27,2.77A13.78,13.78,0,0,1,223.5,136a13.32,13.32,0,0,1-3.07,3.34,16,16,0,0,1-3.7,2,33.44,33.44,0,0,1-4.07,1.25q-1.22.24-2.49.45a11.73,11.73,0,0,1-2.49.15q-.31,4-.37,7.84t-.3,7.83a.52.52,0,0,1,0,.52A.72.72,0,0,1,206.52,159.6Zm2.37-34.49c-.16,1.45-.28,2.92-.36,4.4s-.17,2.94-.25,4.4a28.54,28.54,0,0,0,2.92-.27,10.41,10.41,0,0,0,2.79-.82,7.46,7.46,0,0,0,1.55-1,3.93,3.93,0,0,0,1.06-1.46,2.89,2.89,0,0,0,.19-1.58,3.91,3.91,0,0,0-.94-2.1,4.94,4.94,0,0,0-1.89-1.24,8,8,0,0,0-2.46-.49A10.79,10.79,0,0,0,208.89,125.11Z"/><path class="cls-3" d="M242.66,160a20,20,0,0,1-3.28.09c-1.09-.06-2.19-.15-3.28-.27-.16,0-.33-.11-.52-.19a.55.55,0,0,1-.33-.42,2,2,0,0,1,.15-.91,9.59,9.59,0,0,1,.34-1c.4-1.34.82-2.67,1.24-4s.88-2.62,1.37-3.92.9-2.31,1.36-3.4.92-2.21,1.37-3.34a1.69,1.69,0,0,1-.42-.49c-.82-1.25-1.64-2.5-2.5-3.73s-1.68-2.5-2.48-3.8-1.57-2.62-2.28-4-1.41-2.72-2.1-4.1c-.16-.32-.44-1-.85-1.88s-.83-1.91-1.27-2.95-.88-2-1.31-2.91a19.16,19.16,0,0,0-.94-1.85.51.51,0,0,1,.18-.73,2.53,2.53,0,0,1,.94-.46c.47-.14.95-.27,1.46-.39s1-.22,1.49-.31l1.09-.18c.24,0,.58-.08,1-.12s.87-.07,1.34-.09.9,0,1.31,0a2.07,2.07,0,0,1,.91.21.81.81,0,0,1,.36.37l.24.48a36,36,0,0,0,3.53,8.38,75.54,75.54,0,0,0,5,7.66q2-4.2,4-8.41a57.17,57.17,0,0,1,4.7-8,1.86,1.86,0,0,1,.49-.52,1.58,1.58,0,0,1,.67-.27l1.64-.09c.52,0,1.05,0,1.58,0l.94,0,1.36.09c.49,0,.95.09,1.37.15l.94.15a.77.77,0,0,1,.43.52.7.7,0,0,1-.06.64,48.17,48.17,0,0,0-2.86,5q-3,5.64-5.53,11.38t-5.1,11.57q-1.58,3.58-3,7.17a55.1,55.1,0,0,0-2.34,7.35c-.08.24-.16.48-.24.7a.77.77,0,0,1-.43.45,2.7,2.7,0,0,1-.88.19A7.14,7.14,0,0,0,242.66,160Z"/><path class="cls-3" d="M273.88,129.54q-1.22.06-2.37,0t-2.37-.15c-.16,0-.5-.09-1-.15a3.48,3.48,0,0,1-1-.22.52.52,0,0,1-.43-.54q0-.61-.06-2.25c0-1.09-.09-2.25-.15-3.46s-.13-2.36-.22-3.43a21.58,21.58,0,0,0-.24-2.22c0-.2-.08-.47-.12-.79a.81.81,0,0,1,.12-.67,1.2,1.2,0,0,1,.7-.3l.88-.18a9.41,9.41,0,0,1,1.52-.22q1-.09,2.19-.12c.76,0,1.49,0,2.18,0a5.12,5.12,0,0,1,1.52.21,2,2,0,0,1,.58.4.81.81,0,0,1,.27.58c0,2.1,0,4.21,0,6.31a60.73,60.73,0,0,1-.27,6.32.75.75,0,0,1-.67.67C274.57,129.44,274.2,129.5,273.88,129.54Z"/><path class="cls-3" d="M300.05,159.06a17.43,17.43,0,0,1-6.62.94,19.45,19.45,0,0,1-6.62-1.43,11.5,11.5,0,0,1-3.22-2,10.66,10.66,0,0,1-3.46-7.32,16.07,16.07,0,0,1,.15-3.53,24.49,24.49,0,0,1,.82-3.46,1.62,1.62,0,0,1,.43-.7.73.73,0,0,1,.73-.15,13.48,13.48,0,0,0,3.25.82c1.11.14,2.23.32,3.37.52l.94.24a.44.44,0,0,1,.33.61.53.53,0,0,1-.06.24l-.12.24a12.56,12.56,0,0,0-.24,1.74,5.08,5.08,0,0,0,.18,1.73,4.16,4.16,0,0,0,4.13,3.09,3.65,3.65,0,0,0,2-.42,4.5,4.5,0,0,0,1.52-1.28,4.92,4.92,0,0,0,.88-1.79,4.59,4.59,0,0,0,.09-2.09,5,5,0,0,0-.51-1.61,9,9,0,0,0-.94-1.43,12.69,12.69,0,0,0-2-1.94c-.73-.57-1.48-1.12-2.27-1.64s-1.6-1-2.43-1.49-1.63-1-2.4-1.49a16.55,16.55,0,0,1-3-2.46,13.69,13.69,0,0,1-2.31-3.13,12.43,12.43,0,0,1-1.36-4.55,10.29,10.29,0,0,1,.51-4.68,9.43,9.43,0,0,1,2-3.25,10.58,10.58,0,0,1,3-2.34,20,20,0,0,1,6.93-1.82,18.54,18.54,0,0,1,7,.73,14.2,14.2,0,0,1,5,2.67,16.24,16.24,0,0,1,2.28,2.55,22.19,22.19,0,0,1,1.79,3,1.29,1.29,0,0,1,.24.42.69.69,0,0,1,.06.49,1,1,0,0,1-.39.49l-.52.36a25.17,25.17,0,0,0-4,3.16,7.09,7.09,0,0,1-.73.73c-.33.28-.59.4-.79.36l-.37-.15a.53.53,0,0,1-.3-.21,1.28,1.28,0,0,1-.24-.49,9.1,9.1,0,0,0-.67-1.15,17.44,17.44,0,0,0-1.1-1.46,16.11,16.11,0,0,0-1.24-1.34l-1-.91a8.68,8.68,0,0,0-1.22-.6,7,7,0,0,0-1.52-.46,6.76,6.76,0,0,0-1.54-.12,3.09,3.09,0,0,0-1.25.27,4.37,4.37,0,0,0-2.09,2.13,3.12,3.12,0,0,0,0,2.85,3.52,3.52,0,0,0,.69,1.1,9.14,9.14,0,0,0,.94.85,15.74,15.74,0,0,0,2.62,1.79c.93.5,1.82,1,2.67,1.61,1.29.89,2.55,1.82,3.76,2.79a28.77,28.77,0,0,1,3.41,3.22,17.79,17.79,0,0,1,1.88,2.25,15.77,15.77,0,0,1,1.46,2.61,1.84,1.84,0,0,0,0,.24.42.42,0,0,0,.09.24,9.06,9.06,0,0,1,.85,4.62,12,12,0,0,1-1.13,4.13,12.79,12.79,0,0,1-2.39,3.52,14.68,14.68,0,0,1-2.74,2.13A15.85,15.85,0,0,1,300.05,159.06Z"/><g id="chilli"><path class="cls-3" d="M255.89,266.25S318,257,321.24,203.2s4.24-47.6,10.39-55.89,35.1-10.12,41.08,17S352.8,300.78,255.89,266.25Z"/><path class="cls-4" d="M334.34,142s11.36-19.43,24.71-.44c-1.71-2.23-10.9-2.28-10.9-2.28S337.38,138.54,334.34,142Z"/><path class="cls-4" d="M344,128.42s6.63-11.83-.59-31.82c3.71-5,16.81,12.09,7.31,33.27C347.26,130.87,344,128.42,344,128.42Z"/></g><g id="chilli-2" data-name="chilli"><path class="cls-3" d="M133.87,268s-63.2,1.85-75.94-50.84-12.66-46.39-20.23-53.5S1.13,159.86,0,187.74,44,319.42,133.87,268Z"/><path class="cls-4" d="M34.06,158.83s-14.7-17.23-24.55,3.95c1.3-2.51,10.39-4.19,10.39-4.19S30.44,156,34.06,158.83Z"/><path class="cls-4" d="M22.13,147.12s-8.68-10.54-5.08-31.62c-4.57-4.33-14.5,15-1.32,34.26C19.29,150.14,22.13,147.12,22.13,147.12Z"/></g></g></g></svg>