<svg xmlns="http://www.w3.org/2000/svg" viewBox="0 0 133.17 158.63"><defs><style>.cls-1{fill:#f6c114;}.cls-2{fill:#232323;}.cls-3{fill:none;}</style></defs><g id="Layer_2" data-name="Layer 2"><g id="Layer_1-2" data-name="Layer 1"><g id="logo3"><path class="cls-1" d="M609.32,159H722.67a5.23,5.23,0,0,1,5.2,5.6c-2.76,38.31-34.48,38.31-61.89,38.31s-59-2.13-61.87-38.3A5.22,5.22,0,0,1,609.32,159Z" transform="translate(-599.23 -46.94)"/><path class="cls-2" d="M666,205.57c-22.89,0-61.21,0-64.5-40.73a7.84,7.84,0,0,1,7.84-8.46H722.67a7.84,7.84,0,0,1,7.83,8.42C727.56,205.57,693.42,205.57,666,205.57Zm-56.66-43.91a2.58,2.58,0,0,0-2.58,2.76c2.68,33.1,30.73,35.87,59.24,35.87,27.86,0,56.67,0,59.26-35.86a2.59,2.59,0,0,0-2.57-2.77Z" transform="translate(-599.23 -46.94)"/><path class="cls-1" d="M724.8,126.25H607.55a2.38,2.38,0,0,1-2.2-3.28A65.84,65.84,0,0,1,727,123,2.38,2.38,0,0,1,724.8,126.25Z" transform="translate(-599.23 -46.94)"/><path class="cls-2" d="M724.8,128.89H607.55a5,5,0,0,1-4.64-6.94,68.49,68.49,0,0,1,126.53,0,5,5,0,0,1-4.64,6.94Zm-.24-4.91h0Zm-116.62-.37H724.41a63.21,63.21,0,0,0-116.47,0Z" transform="translate(-599.23 -46.94)"/><path d="M612.63,70.64a11.27,11.27,0,0,1,1.63,2.51.65.65,0,0,1-.15.88l-3.81,3.45a.71.71,0,0,1-1,0,.66.66,0,0,1-.15-.22c-.16-.35-.64-1.26-1-1.93a9.17,9.17,0,0,0-.93-1.36,1.59,1.59,0,0,0-.5-.39.83.83,0,0,0-.82.14c-2,1.79.85,7.56,3.46,10.43,1.14,1.26,3.34,3.36,4.93,2.37a3.12,3.12,0,0,0,1.2-2.53,3.56,3.56,0,0,0,0-.79c0-.26-.07-.52-.09-.76-.11-.84-.28-1.74-.49-2.75a.76.76,0,0,1,.24-.66.81.81,0,0,1,.56-.21l3.21.24a.66.66,0,0,1,.46.23.6.6,0,0,1,.19.32,17.74,17.74,0,0,1,.69,5.11,8.66,8.66,0,0,1-5,7.87c-3.25,1.64-7.7.14-11.17-3.7a17.64,17.64,0,0,1-4.85-12.41,8.32,8.32,0,0,1,3-6.42c.3-.27.63-.52.95-.76a6.51,6.51,0,0,1,6-1.14A7.15,7.15,0,0,1,612.63,70.64Zm-11.49,1.72s0,0-.08,0l0-.06-.41.37a.48.48,0,0,1,.24-.12.09.09,0,0,1,.11,0l0,0a.19.19,0,0,0,.11,0s.08-.08.06-.1Zm.49-.44.14-.13v-.2l-.25.22Zm-.09,9.65a.29.29,0,0,0,.19-.07l.14-.12Zm.24-.62a.29.29,0,0,0,.24-.06l0-.14a.52.52,0,0,0-.32.09Zm1.1-1a.6.6,0,0,1-.21-.11.47.47,0,0,0-.51-.13.18.18,0,0,1-.23-.09c0,.18,0,.28,0,.34s.1,0,.21,0a.52.52,0,0,0,.21-.14.57.57,0,0,1,0,.31c0,.14,0,.22.07.24s.12.09.15.06l0,0s0-.05,0-.08.08-.07.13-.07,0,0,.11,0c0-.06,0-.06,0-.14S602.87,80.07,602.88,80Zm-.59-8,0-.19a.18.18,0,0,1-.23,0l-.17.14a.08.08,0,0,0,0,.11c.05.05.13,0,.21,0A.71.71,0,0,0,602.29,71.93Zm-.24,10.92-.13.12L602,83l.13-.12Zm0-1.7.1.11a1.21,1.21,0,0,1,.4-.27.23.23,0,0,0-.06-.24Zm.28.69-.2.18a.3.3,0,0,0,.42.12c0-.13,0-.18,0-.24s-.07-.08-.1-.05S602.31,81.87,602.29,81.84Zm.09-9.7a.23.23,0,0,1-.13,0l-.11.1c0,.1,0,.15,0,.18s.08,0,.17-.1a.34.34,0,0,0,.16-.1Zm-.11,10.46a.32.32,0,0,0,.27,0S602.43,82.56,602.27,82.6Zm.4.94,0,0h0c-.09.13-.12.26-.07.31l.16,0C602.72,83.69,602.72,83.59,602.67,83.54Zm.22-4.28s-.08,0-.13,0l-.13,0s0,.05,0,.08,0,.08,0,.1ZM602.78,73l-.13,0,0,.08.08,0Zm.83,8.47a2.27,2.27,0,0,0-.74.12l-.13.12a.19.19,0,0,1,.2.07s.08.08,0,.1l0,0h-.06l0,0s0,.08,0,.08,0,.1,0,.1a.17.17,0,0,0,.08,0s.08,0,.08,0a.66.66,0,0,0,.17-.25.45.45,0,0,1,.12-.26s.08,0,.16,0,.08,0,.1,0Zm-.75-2.76-.08.08.07.08.08-.08Zm.17.35H603A.06.06,0,0,0,603,79.08Zm.09,1.36-.14.13,0,.05.14-.12Zm.13-3.21h0a.15.15,0,0,1-.08,0,.09.09,0,0,0,0,.11Zm.21,5.69.09-.07-.15-.17c-.09.08-.14.07-.16,0s0,.16.07.18,0,.14,0,.16A.32.32,0,0,0,603.46,82.92Zm-.07.91.14-.12v0s0,0,0-.08l-.08,0-.16.15Zm.39-2.1-.24.17.05.06.24-.17Zm0,1.1-.14.13.08.13.13-.12Zm-.09-13.27a.67.67,0,0,0,.31-.09.76.76,0,0,0,.15-.23,1.16,1.16,0,0,1,.22-.25l-.19,0a1,1,0,0,0-.24.17,2.7,2.7,0,0,0-.27.15A.26.26,0,0,0,603.69,69.56Zm.16,18.19-.19.18.07.08a.25.25,0,0,0,0,.11c.05,0,.07.08.13.08l.12,0a.41.41,0,0,0,0-.26Zm.42-3.72s-.08,0-.16,0a.47.47,0,0,0-.19.12l-.16.15.07,0a.22.22,0,0,0,.11.06,1.49,1.49,0,0,1,.45-.27Zm-.5-2.58a1,1,0,0,0,.12.29.55.55,0,0,0,.2.11l.08-.07A.66.66,0,0,0,603.77,81.45Zm.65-11.85a1.05,1.05,0,0,1,.25-.28c0-.13,0-.1,0-.23a.78.78,0,0,0,.12-.21.62.62,0,0,0,.06-.26.3.3,0,0,0-.21.1c-.08.07-.11.1-.16.1s0,.1,0,.1.1.06.1.11a.3.3,0,0,0-.06.26.27.27,0,0,1-.09.18c-.06,0-.11.1-.11.15s-.14.07-.17.1-.07,0-.07-.09-.08,0-.13,0a.74.74,0,0,0-.15.39c.11,0,.18,0,.21.06l.5-.16,0,0s0,0,0-.06C604.36,69.75,604.36,69.7,604.42,69.6Zm-.23.8a.14.14,0,0,1,0-.11.12.12,0,0,0-.1-.11.42.42,0,0,0-.07.26C604.12,70.37,604.17,70.37,604.19,70.4Zm.23,13.85c-.06,0,0,.13,0,.19a.17.17,0,0,0,.08,0s0,0,.1,0Zm.19-10.59-.17.15a.52.52,0,0,0,.07.24,1.07,1.07,0,0,1,0,.21l.16-.15c0-.08,0-.18,0-.21Zm.83-5.08-.14.12.05.06.14-.13Zm0,9.86,0,0,.07.09.06,0Zm.22-6.47-.22.19.32.36.2-.23Zm-.16-.51c0,.05,0,.05,0,.08l.08.08A.22.22,0,0,0,605.55,71.46Zm.26,12.18a.72.72,0,0,0-.2-.17.43.43,0,0,0,.11.3.27.27,0,0,0,.21.11.55.55,0,0,1,.17.14A2.26,2.26,0,0,0,605.81,83.64Zm1.87,7h-.13l-.19.18-.09.18.1.11a.13.13,0,0,1,.08,0,.2.2,0,0,1,.11,0s0,0,.06-.1A2.86,2.86,0,0,1,607.68,90.62ZM607.62,72l.25.33.18,0a.63.63,0,0,1,0-.21.31.31,0,0,0-.07-.19C607.89,71.84,607.78,71.83,607.62,72Zm.78.7h.05c0,.21,0,.21-.1.33s0,.08-.08.13a.29.29,0,0,0-.09.13l.1.11a.34.34,0,0,0,.22-.1.45.45,0,0,0,.16-.09l.14-.23.07-.26C608.82,72.59,608.4,72.68,608.4,72.68Zm.23-1,.35-.22-.05,0v-.06s0,0,0,0l0,0-.3.27Zm.78.54a.74.74,0,0,0,.09-.18c.08-.13.11-.21.09-.18l.08-.13-.12-.14c-.11,0-.13,0-.16,0a.71.71,0,0,1-.16,0,.45.45,0,0,0-.21.09c-.11.1,0,.45,0,.47A.26.26,0,0,0,609.41,72.26ZM610,72l-.09.07a1.21,1.21,0,0,1-.11.21.3.3,0,0,1-.24.06h-.05l-.08.07a.59.59,0,0,0,.13.38.56.56,0,0,0,.24-.07.92.92,0,0,1,.27-.09l0-.18a.15.15,0,0,0-.2-.06s0-.06,0-.08l0,0,.09-.07c0-.08,0-.11,0-.11Zm-.13,17.16,0,0,.2.22.05-.05Zm1.58-15.83-.08,0,0,0,.08,0Zm4.36,6.36s0-.08,0-.13a.11.11,0,0,0,0-.1l-.22,0s0,0,0,0l.05.06C615.61,79.66,615.69,79.69,615.84,79.69Zm.27,11.43.22-.2s-.05-.06-.1-.06-.06,0-.08,0S616.08,91.09,616.11,91.12Zm2.82-3,.11-.05-.14-.48-.13,0Z" transform="translate(-599.23 -46.94)"/><path d="M638.84,72.75a.69.69,0,0,1,.2,1l-2.44,4.2a.8.8,0,0,1-.48.37.69.69,0,0,1-.61-.15c-1.59-1.27-2.7-2.16-3.55-2.69v0c-1.21-.84-2.47-1.61-3.69-2.4l-1.6,1.42,2.92,6.06a.66.66,0,0,1-.33,1l-4.06,2.05a.74.74,0,0,1-1-.37l-8.92-21.12a.73.73,0,0,1,.24-.91L620.17,58l0,0,.87-.56a15.9,15.9,0,0,1,4.63-2.16c4.09-1.07,7.31,3,7.9,7.49a8.86,8.86,0,0,1-.38,3.78,12.44,12.44,0,0,1-.75,1.71ZM617.11,63l.07,0-.09-.16-.06,0Zm3.27,5.68c0,.07.07,0,.12.07s0,0,0-.07l0,0a.22.22,0,0,0,0-.13l-.2.1Zm.79-.23a.45.45,0,0,0-.23-.13c-.08,0-.1,0-.13-.1a.51.51,0,0,1-.25.33,1.48,1.48,0,0,1,.3-.07c.08,0,.16,0,.18,0Zm.15.3c-.21,0-.36-.07-.49,0s-.05.07-.1.13a.73.73,0,0,0-.13.23c.06,0,.11,0,.14,0a.2.2,0,0,0,.17,0A4.25,4.25,0,0,0,621.32,68.77Zm-.26,1-.18-.2-.07,0,.18.2Zm-.1,1.2.17-.08a.56.56,0,0,0-.22-.1l.05.1S621,70.9,621,70.93Zm.15-1.1H621V70h.08Zm1-.45-.16.08.07.13.16-.08Zm.14,1.34h-.08l-.17.16,0,0Zm5.22-6.81a3.25,3.25,0,0,0-.76-2.51l0,0a1.07,1.07,0,0,0-1-.15,4.6,4.6,0,0,0-1.34.8l-2,1.69,1.9,5C625.83,67.53,627.42,66.16,627.44,63.91Zm-5.16-2.12a.55.55,0,0,1,.17.17s0,0,.16.16l.1-.13s-.06-.05-.08-.08,0,0-.07,0l0-.1a.1.1,0,0,1,.07-.12Zm.28-2.83.29-.15,0-.06-.3.15Zm.16,1.24.24-.11c0-.14-.29-.23-.33-.25C622.54,60,622.56,60.12,622.72,60.2Zm0-1.07v0l0,.1.16-.09s0-.08,0-.13V59Zm0,1.44.1-.14-.07,0-.06.12Zm.5-1.24s.06,0,.08,0,0,0,0,0,.06,0,0-.06l0,0Zm.59-.39.07,0,0-.1-.07,0Zm.13.6.35-.13,0-.14s-.09,0-.15,0-.09,0-.15,0S624,59.44,624,59.54Zm.36-.93.1-.13s0,0-.08,0a.08.08,0,0,1-.1,0Zm-.06,1.19.07.14.06,0-.06-.13Zm.26-.63a.16.16,0,0,0,.09.09s0,0,.06.05l.2-.1-.08-.17Zm.2.9a.48.48,0,0,0-.08.16l.33-.16-.11-.24A1.08,1.08,0,0,1,624.72,60.07Zm.47-.73.13-.07c0-.05,0-.08,0-.06l-.09,0s0,.09,0,.1Zm.08.33s.08,0,.18,0c-.05,0,0,0,.15,0l0,0v-.08S625.5,59.55,625.27,59.67Zm.24-.91,0,0,.05,0,0,0c.1-.13.1-.21.08-.25s-.06-.05-.11-.06A1.27,1.27,0,0,0,625.51,58.76Zm.83.66h-.16s0,0-.12.1l.15.13c0-.07.07-.12.1-.13Zm0-1.26s0,0,0-.08,0,0,0-.1l-.25.08C626.16,58.15,626.31,58.19,626.37,58.16Zm.14,9.16-.22,0,.07.13Zm0,1.34-.18,0a.21.21,0,0,0,0,.24h.17A.45.45,0,0,0,626.56,68.66Zm-.12-9.13c-.05.07-.1.14-.06.2s.1,0,.16,0,.15,0,.18,0a.6.6,0,0,0-.16-.33Zm.08,21.56-.13.06c.05.1,0,.15,0,.17A.2.2,0,0,0,626.52,81.09Zm.07-21.26,0,.18.05,0,.13-.07v0l.06,0,0-.1A.58.58,0,0,0,626.59,59.83Zm.17,9.88,0-.06-.13.06,0,.07Zm.3.52.1,0c0-.15,0-.19-.08-.17s-.12.1-.09.17S627,70.24,627.06,70.23Zm.16-12.29.13-.06-.05-.1-.13.07Zm.16,8.4a.38.38,0,0,0,.23,0l.09.16c.16-.08.15-.11.28-.26a.64.64,0,0,0-.38.06l0-.06a.1.1,0,0,0-.06-.13A.24.24,0,0,0,627.38,66.34Zm.35-7.62.17.33a.72.72,0,0,0,.13-.15A.42.42,0,0,0,627.73,58.72Zm.16,12.66-.08-.08,0,.06.06,0ZM628,60.67l.17-.08s0-.07-.08-.09a.27.27,0,0,1-.15,0Zm-.05,6.23.27-.13.59-.13,0,0c-.05,0-.05,0-.06-.05l0,0-.33.16-.18-.2A1.44,1.44,0,0,0,627.91,66.9Zm.27-1-.2.1a.84.84,0,0,0,.34.2A.28.28,0,0,0,628.18,65.94ZM628.3,61a.36.36,0,0,0,0-.25l-.14.07c0,.07-.06.11-.09.13s0,.1,0,.08Zm.08-1.82a1.17,1.17,0,0,0-.2.35l.28-.1C628.51,59.36,628.46,59.26,628.38,59.18Zm.23,8.28c.08-.16.11-.26.06-.36s0,0-.06,0l-.05,0s0,0-.15-.13l0,.1-.07,0,0,.1.16.33A.25.25,0,0,1,628.61,67.46Zm.21-2.87-.09-.17-.28.1c-.08.08-.1.13-.06.12s0,.06,0,.13a.18.18,0,0,0,.07,0C628.67,64.78,628.8,64.8,628.82,64.59Zm0,1.12,0-.07-.13-.09-.1.29ZM629,63a.46.46,0,0,0-.48-.05Zm-.21-2.54-.16.08.07.13C628.82,60.65,628.86,60.55,628.82,60.49Zm-.14.61a.8.8,0,0,0,.26-.05s-.05,0-.06,0a.12.12,0,0,0-.12,0h0S628.71,61.08,628.68,61.1Zm.08-1.74s.06,0,.11.07a.22.22,0,0,0,.13,0c-.08-.09-.13-.1-.16-.09Zm.32,4.51s-.07,0-.12-.06a.28.28,0,0,0-.19,0l.05.26Zm-.08,2.9s.07,0,0-.07,0-.1-.1-.11l-.15,0c0,.18,0,.29.09.33S629,66.78,629,66.77Zm-.11-5.49.13,0,0,0-.15-.05Zm.36,6.48a.23.23,0,0,0-.21-.1.25.25,0,0,0-.13.23.38.38,0,0,0,.21-.07Zm-.33-.33c0,.06.12.06.25,0l.07,0-.12-.24C629,67.25,628.87,67.33,628.92,67.43Zm.37.23.19-.1c.07-.12,0-.18-.11-.23C629.27,67.46,629.24,67.56,629.29,67.66Zm.24-3.14-.15,0v.17l.15,0Zm-.1,2.44.25-.16-.06-.13-.24.2Zm.29-3.95-.29.15,0,.1.3-.15Zm.48,4.56-.09-.16s-.05,0-.08,0,0,0,0,0a.2.2,0,0,0-.08,0l-.23.12a.68.68,0,0,1,.2.23.17.17,0,0,0,.16-.08Zm0,.53s0-.1,0-.13a.51.51,0,0,0-.33.08l.16.17C630.13,68.19,630.2,68.15,630.21,68.1Zm.15.63s-.06,0-.13-.1a.56.56,0,0,0,0,.38.23.23,0,0,1,.09,0l.23-.11Zm.15.46a.3.3,0,0,0-.28.19.33.33,0,0,0,.27,0,.08.08,0,0,0,0-.1Zm.22-.31-.15,0,0,.18.14,0Zm.54-.07-.33.09c0,.13,0,.16.09.16A.58.58,0,0,0,631.27,68.81Zm.05-8.87s.11,0,.2,0,.11,0,.21-.07,0-.06,0-.08a.13.13,0,0,0,0-.12.63.63,0,0,0-.28-.23l.14.27-.23.11C631.37,59.87,631.35,59.92,631.32,59.94Zm.83.74-.38-.76-.07,0,.38.76ZM632,70.81c0-.07,0-.1-.1-.12s0,0,0,0v.05l0,0Zm.49-9.8c-.15,0-.22,0-.25-.08s-.07-.14-.13-.19l1.18,2.35a.87.87,0,0,0-.07-.46c-.05-.1-.15-.22-.23-.38a1.49,1.49,0,0,1-.2-.32.22.22,0,0,1,0-.18,1.48,1.48,0,0,0-.23-.3C632.41,61.37,632.38,61.22,632.48,61Zm2.85,9.86.15,0s0-.07,0-.13Zm.41.16-.16.09.09.19a.4.4,0,0,0,.32,0,.38.38,0,0,1-.17-.16S635.76,71.07,635.74,71Zm.6.61h-.09v.14h.08Zm.74,1.74h-.24a.61.61,0,0,0-.25.08c-.1.05-.17.17-.13.23a.41.41,0,0,0,.33,0A.87.87,0,0,0,637.08,73.38Zm.35-.63c0-.07-.13-.1-.28-.07s0,.15,0,.18a.33.33,0,0,0,.36.15.21.21,0,0,1,0-.11Z" transform="translate(-599.23 -46.94)"/><path d="M642.43,49.66c.76,3.89,1.63,8.06,2.53,11.92.35,1.36.69,2.68,1.06,4l-.11,0a.64.64,0,0,0-.24.11l0,.25.07,0a.77.77,0,0,1-.31.4,1.81,1.81,0,0,0,.75-.06l.29,1-.17.05-.13.11s-.06.06-.09.07,0,0,0,.09l0,.14a.31.31,0,0,0,0,.19,1.34,1.34,0,0,0,.14.35l.11-.15.06-.06.15-.15a.33.33,0,0,0,0-.19l0,0h0c.07.37.21.87.4,1.54a.2.2,0,0,0-.18,0c0,.11,0,.14.08.13l0,0,0,0,.07,0v0h0l.37,1.31a.27.27,0,0,0-.21-.2l-.28.08c0,.07,0,.1.06.09l0,.11.05,0v0a.54.54,0,0,0,.34-.14l.71,2.49a.68.68,0,0,1-.51.92l-5.09,1.55a.76.76,0,0,1-1-.53c-1-3.83-2-7.69-2.91-11.62-.53-2.31-1.08-4.65-1.55-7a.13.13,0,0,0,.12,0l0-.19a.14.14,0,0,0-.11,0l-1-4.89a.68.68,0,0,1,.55-.89l4.87-1.53A.75.75,0,0,1,642.43,49.66Zm-4.26,1.63a.17.17,0,0,1,0-.12.22.22,0,0,1,.15-.16.46.46,0,0,1,.46.14.85.85,0,0,0,.3.23.49.49,0,0,0,0-.27c-.06-.06,0-.15.09-.22l.43-.12a.2.2,0,0,0-.2-.14c-.13.08-.2.1-.24.07a.29.29,0,0,0-.16,0,.58.58,0,0,0-.15.12c-.05.09-.08.13-.12.14a.31.31,0,0,1-.24,0,.51.51,0,0,0-.2,0l-.5.14a.2.2,0,0,1,0,.19l-.21.06c-.11-.09-.15-.11-.14-.08s0,0-.06.06,0,.08,0,.16l-.15,0c-.05-.06-.09,0-.13-.08s-.09,0-.15-.11-.26,0-.33.06a.16.16,0,0,1,0,.12c-.06.06-.05.09,0,.13a.38.38,0,0,0,.15.26c.09,0,.17.19.2.45,0-.09,0,0,0,.35a1.4,1.4,0,0,0,0,.38s0,.07.11.12a.18.18,0,0,1,.11.13s-.07,0-.06.05-.08.1-.06.17.14.12.14.23a.31.31,0,0,0-.05.25,2.78,2.78,0,0,0,.19.52l.18.37a.14.14,0,0,1-.07.17l.07,0,.05,0a.66.66,0,0,1,.36-.22l-.09-.32c-.15,0-.35-.17-.31-.29l.29-.2a1.65,1.65,0,0,0,.22-.18c-.28,0-.16-.26.09-.33,0,0-.09-.05-.1-.09a.14.14,0,0,1,0-.06c.07-.14.16-.24.15-.28S638,53,637.92,53s-.1-.08-.11-.12a.43.43,0,0,1,.24-.22,3.61,3.61,0,0,0,.33-.17c-.24.07-.36.06-.39-.05s.11-.29.39-.38a.18.18,0,0,1-.14-.22s-.2,0-.23-.13.13-.23.19-.28A.07.07,0,0,0,638.17,51.29ZM638,55.82a.27.27,0,0,1,.11-.3c.11,0,.16-.12.21-.21a.29.29,0,0,0-.35-.13,1,1,0,0,1-.42.12.55.55,0,0,1-.09.37c.22.09.23.12.2.29a1.19,1.19,0,0,0,0,.22.92.92,0,0,0,.12.27.5.5,0,0,0,0,.24c-.05.09,0,.16,0,.18s0,0,.1.08.08,0,.13,0l.5,2.47c-.14.16-.17.2-.14.19a.35.35,0,0,1,.21.06.24.24,0,0,1-.13.19l.05.33c.16,0,.24.05.18.1l-.07.14.22.09.32,1.56a.26.26,0,0,0-.08.26c0,.1.16.14.2.17s0,0,0,0-.06.21-.16.28c.08.13.15.23,0,.35.33.1.31.29.29.61s-.07.32-.14.34c.21.06.29.07.31.15a0,0,0,0,0,0,0v0a.78.78,0,0,0-.13.49c0,.07,0,.07.07.1s.08,0,.09,0l-.09.1a.24.24,0,0,1,.17.18l.08.29s0,0,0,.27,0,.15,0,.15l.17.18a.25.25,0,0,1,.12.16.25.25,0,0,1,0,.2c0,.13-.07.17,0,.24s0,.07.06.06l0,.08.21-.07s-.09-.05-.1-.08a.15.15,0,0,1-.06-.1.46.46,0,0,1,.25-.19,3.43,3.43,0,0,1-.46-.79.17.17,0,0,1,0-.16A1.07,1.07,0,0,0,640,65a1.06,1.06,0,0,1,0-.3c0-.05.07-.14,0-.15s-.06-.06,0-.22l.14,0a2.66,2.66,0,0,1-.26-.54,1.83,1.83,0,0,1,0-.66l-.18.05v0l-.18.05s0,0-.08,0l.21-.37a.45.45,0,0,0,.08-.25,3.18,3.18,0,0,0-.17-.3.55.55,0,0,1-.13-.46l.29-.08c-.18,0-.31,0-.34-.1a1.06,1.06,0,0,1,0-.43,1,1,0,0,0,0-.47c0-.11-.1-.2-.14-.34s-.06-.06-.08-.14a.74.74,0,0,1-.16-.3l-.08-.16a.39.39,0,0,1,0-.2,18,18,0,0,0-.05-.72.42.42,0,0,0,0-.15.88.88,0,0,0-.14-.23c-.19-.25-.17-.33-.11-.39a.53.53,0,0,1,.1-.18,2.08,2.08,0,0,0-.1-.51c-.06-.21-.07-.37,0-.48-.2,0-.27-.15-.16-.3a.62.62,0,0,0-.15-.14c0-.13,0-.23-.14-.35A.32.32,0,0,1,638,55.82Zm.57-3.69a.94.94,0,0,0,.33-.18s0,0,0-.08l0-.1c0-.07,0-.11,0-.16s-.14.08-.13.12,0,.12,0,.19a.23.23,0,0,1-.25.19S638.53,52.15,638.6,52.13Zm1.82,15c-.07.17-.12.26-.13.23s-.08.13-.06.2l.32,1.26a1.54,1.54,0,0,1,0-.38,2.47,2.47,0,0,1-.07-.4.8.8,0,0,1,0-.27.31.31,0,0,0,0-.2Zm.32,2.21c0-.14-.06-.21-.1-.2a.36.36,0,0,0,0,.31C640.72,69.38,640.75,69.34,640.74,69.3Zm.53,2.58-.11.14.14.08Zm.42-16.44.21-.06-.14-.08S641.74,55.35,641.69,55.44Zm.88,6,0-.22a.26.26,0,0,0-.23.29Zm-.07-6a1,1,0,0,0,.2-.21h-.23c-.05.09-.11.14-.1.18Zm.57,7.06s-.08,0-.16,0v.3l.22.09c-.09.1,0,0,.15-.15s.12-.12.11-.15-.09-.05-.18-.07A.33.33,0,0,0,643.07,62.5Zm.1-2.76a.56.56,0,0,0,.18.22s.1-.07.22-.18A.51.51,0,0,0,643.17,59.74Zm.06,2.1s.06-.06.06-.06l0,0c.08-.11.11-.15.09-.22s-.1-.09-.21-.06,0,0,0,.08l0,.11Zm.31-.94,0-.1-.14,0,0,.1Zm.31.42-.14-.08-.24.07v.15c0,.11.16.15.3.11l0,0c0-.08.05-.09,0-.12A.08.08,0,0,1,643.85,61.32Zm.25,6.15s.07,0,.06-.06l.07,0,.06,0,0-.23-.12,0a.17.17,0,0,1-.12,0,.1.1,0,0,1-.14-.08l-.21.06s-.06.06-.06.06v0l-.06.06,0,0c.1.05.14.08.21.06l.14.08A.2.2,0,0,0,644.1,67.47Zm-.26-9s0,0,0,0l-.07,0s0,0-.06.06,0,0,0,0,0,0-.06.06a.31.31,0,0,0,.15,0s.15,0,.13-.07ZM644,68.73l-.4.19.45,0Zm-.07-5.55-.25.07.05.18.28-.08,0-.11S643.94,63.25,643.92,63.18Zm.11,4.88,0-.28-.32.09,0,.17A.41.41,0,0,0,644,68.06Zm0-2.53,0,0a.34.34,0,0,0-.27,0l0,.2.07,0a0,0,0,0,0,0,0s.08,0,.13,0l0-.12h.08a.08.08,0,0,0,.09,0l.24-.1c0-.15-.12-.16-.3-.11C644.15,65.49,644.12,65.5,644,65.53ZM644,69.39l-.11.15a.34.34,0,0,0,.28,0s0,0,.06,0a.1.1,0,0,1,.06-.06.29.29,0,0,0,.1-.06Zm0,.77.32-.09,0-.1-.32.09Zm.51-5.25c-.1.07-.34.17-.49.29l0,.15s0,0,0,0l.07,0,0,0,.32-.09-.05-.18a.57.57,0,0,0,.27-.12.13.13,0,0,0-.06-.09.13.13,0,0,1-.06-.07v0l0-.19-.47.1c0,.14.07.25.12.27Zm-.2-2.06,0-.1-.21.06,0,.1ZM644.13,66v0l.05,0,.28-.08a.45.45,0,0,0-.43,0c.05,0,.08,0,.05.06Zm.21,2.78.06,0,.05-.09-.37,0s0,.06.06.09,0,.11.11.09A.12.12,0,0,0,644.34,68.74Zm-.19-2.44,0,.11.19-.13-.07-.14Zm.13-2.38a.21.21,0,0,0-.08.25l.14,0s.08,0,.16,0l.11-.15A.47.47,0,0,0,644.28,63.92Zm.15,6.91.22-.06c.06-.06.08-.1.07-.14h0c0-.08,0-.09,0-.09s-.07,0-.08,0l-.18.06a1.09,1.09,0,0,1-.31,0c0,.07,0,.07,0,.12a.06.06,0,0,0,0,.07l0,0h0C644.42,70.79,644.46,70.78,644.43,70.83Zm-.07-4,.14.07a.39.39,0,0,0,.22-.17c0-.12-.08-.13-.18-.1S644.44,66.64,644.36,66.78Zm.72.1-.66.11.05.18Zm-.24-.85,0,0s0,0,.05.06a.1.1,0,0,0,.08,0s0,0,.05,0,0,0,0,0l.06-.09a.14.14,0,0,0-.07-.1s0,0-.09,0l-.07,0s0,0-.06-.06l-.25.07-.11.15.17.06.07,0,0,0Zm-.17,3.58.4-.07,0-.15h-.31c0,.07,0,.07,0,.08A.19.19,0,0,0,644.67,69.61Zm0-.31c.06.06.21,0,.39,0a.34.34,0,0,0,.13-.19l.29-.08,0,0v0s0,0,0-.08l-.34,0a.11.11,0,0,0,0,.11h0l0,0L645,69c-.07,0-.14,0-.16.12s0,.09,0,.09h0A0,0,0,0,0,644.69,69.3Zm.5,2.43-.32.09,0,.14.32-.09Zm.07-3.94a.26.26,0,0,0,.09-.25.32.32,0,0,0-.27,0h0c-.09.1-.14.19-.13.22a.11.11,0,0,0,.14.08Zm-.24.91.18,0V68.5l-.18,0Zm.37-4.52a.23.23,0,0,0-.32-.06c-.05.09,0,.13,0,.12l0,.1Zm.4,5.46-.14-.23a1.05,1.05,0,0,0-.34.32c.05,0,.12,0,.23,0Zm-.26,1.53c.21-.06.47-.25.49-.44a.61.61,0,0,0-.53.3Zm.1-1.26,0,.11.22-.06,0-.11Zm.06-.9.21-.06,0-.1-.21.06Zm.07-1.51c-.08.13-.09.25,0,.31a.33.33,0,0,0,.3-.16l0-.18A.38.38,0,0,0,645.76,67.5Zm.09,3.85v.12l0,0,0,.07a.46.46,0,0,1,.19,0v-.42a.62.62,0,0,0-.3,0Q645.73,71.32,645.85,71.35Zm.41-2.34v0L646,69l.06.21.28-.11,0-.11Zm-.16-3.15.12.43s-.05-.06-.09-.05,0,0-.08,0v0s.06-.06,0-.13l-.05-.18Zm.45,5.94-.28.08c0,.08,0,.09,0,.09l0,.17a.25.25,0,0,0-.1.18l0,.14c.14,0,.21-.06.22,0a.24.24,0,0,1,0,.15.28.28,0,0,0,.09.17l.19-.13.08-.14-.08-.4a.37.37,0,0,1-.18,0c.07,0,.14,0,.16-.08Zm-.35-1.12.12,0,.09-.22h-.15Zm.43-.24c.1,0,.14,0,.17-.09h0l-.08-.28a.25.25,0,0,1-.2,0c-.06,0-.13.07-.16.12l0-.06-.1.06a.45.45,0,0,0,.08.29A.66.66,0,0,0,646.63,70.44Zm-.15-.65,0,0-.11,0c0,.07.07.1.1.09l.09,0C646.67,69.89,646.64,69.82,646.48,69.79Zm-.12-1s0,0,.08,0v0l.07,0c.05,0,.05,0,.09,0s.26-.15.22-.29l-.26,0Zm.08,2.59s.08,0,.19,0h.12l.07,0c.18,0,.17-.08.16-.24l-.32.09a.41.41,0,0,1-.27,0l0,.2Zm.58.15c-.18,0-.28.34-.33.44h.3a.72.72,0,0,0,.32-.52Zm.24.58c-.09,0-.23,0-.41,0l.13.19A.61.61,0,0,0,647.26,72.14Zm.24,0-.25.07,0,.24.29-.08c0-.09,0-.09,0-.16Z" transform="translate(-599.23 -46.94)"/><path d="M654.07,67.55c1.91.47,3.29-.2,3.13-1.74a2.55,2.55,0,0,0-1.36-2,28.89,28.89,0,0,0-2.59-1.32l-.78-.37s0,0-.08,0a18.46,18.46,0,0,1-2.34-1.46.05.05,0,0,1,0,0,4.78,4.78,0,0,1-1.61-2.32,8.6,8.6,0,0,1,.42-6.62,7.38,7.38,0,0,1,5.5-4.32c2.36-.55,5.23-.73,7.1,1.15a5.09,5.09,0,0,1,1.25,2.73,11.78,11.78,0,0,1,.22,1.32c.08.77.11,1.44.13,2s-.18.72-.66.77l-4.26.45a.67.67,0,0,1-.82-.66c-.08-.81-.21-1.69-.38-2.6-.11-.4-.29-.64-.59-.64h0A1.33,1.33,0,0,0,654.86,53a2.86,2.86,0,0,0,1,3.5,8.23,8.23,0,0,0,1.59,1l1.21.57c3,1.44,5.33,3.65,5.32,7.18v0c-.24,2.73-1.34,5-3.56,6.2a11.88,11.88,0,0,1-5.48,1.2A18.37,18.37,0,0,1,648.57,71a.68.68,0,0,1-.4-1l1.28-3.41a.74.74,0,0,1,1-.44A21.78,21.78,0,0,0,654.07,67.55Zm-.15.31-.22,0V68l.22,0Zm.59,1-.1.13.16,0,.09-.15Zm1.3,1.09-.25,0v.11l.25,0Zm1.52-9.67-.33,0,0,.15.33,0Zm.83,1.55-.07,0-.09-.06,0,.26h.07l.08,0a.15.15,0,0,0,.07-.05C658.24,61.91,658.24,61.91,658.16,61.84Zm.44-1.53a.09.09,0,0,1,0-.08.21.21,0,0,0-.06-.18l-.22,0a.52.52,0,0,0,0,.44l.29,0A.28.28,0,0,0,658.6,60.31Zm-.06-9.13V51.1l-.15,0v.07Zm.22,9.3a.56.56,0,0,0-.21.06s.08.1.17.2.1-.08.28-.17v0s0,0,.07,0a1.3,1.3,0,0,1-.15,0Zm0-6.73c-.11,0-.18.06-.17.17l.18,0s0,0,0-.08S658.77,53.75,658.77,53.75Zm.2,15.14-.15,0,0,.18H659Zm.32-.55s-.08,0-.07,0v0s-.07,0-.07,0,0,0-.07,0a.71.71,0,0,0,.3,0C659.37,68.44,659.36,68.37,659.29,68.34Zm.24-16.15a.13.13,0,0,1-.07,0s0,0,0,0a.15.15,0,0,1,0,.07,0,0,0,0,1,0,0c0,.12.09.11.12,0Zm.33,17.35-.3,0c-.07,0-.07.05-.06.12s0,.08.09.11Zm-.31-.78,0,.23c.11,0,.15,0,.15,0,.19,0,.29-.07.28-.22-.08,0-.15,0-.19,0S659.63,68.75,659.55,68.76Zm.49-6h-.34v.11l.34,0Zm.23-.62-.16-.14c-.14.09-.21.17-.2.28l.22,0,.08,0h.07Zm-.16,1.35-.09.12.15.06.1-.16Zm1,3-.37,0c.07-.08,0,0-.14.09s-.07,0-.14,0-.21.17-.2.24V67c.08.06.15,0,.3,0l.15,0,.24-.17c.1-.09.17-.17.16-.2Zm-.66,1.22s0,0,0-.07,0,0-.08,0a.23.23,0,0,0-.06.15l0,.15s.07,0,.07,0h.07l.07-.08S660.45,67.74,660.44,67.7Zm.7-1.89s-.07.08-.06.11L661,66a.18.18,0,0,1-.11,0h0a.42.42,0,0,1-.18,0,1,1,0,0,0-.3,0h-.11v.15l0,0a.27.27,0,0,0,.09.1,2.67,2.67,0,0,1,.48,0H661a.27.27,0,0,0,.2.06h.11l.07,0h.07v-.07a.13.13,0,0,0,0-.11C661.46,66,661.34,66,661.14,65.81Zm-.33-1.35c-.07,0-.11-.06-.15,0h-.15l0,.27a.18.18,0,0,0,.08,0h0l0,0,.26,0s0,0,0,0V64.6s0,0,0-.07S660.82,64.5,660.81,64.46Zm.4,2.71,0-.14c0-.08,0-.11-.05-.11l-.22,0-.13.13v.15A.73.73,0,0,0,661.21,67.17Zm.1,1v-.07l-.4.12a1.51,1.51,0,0,0,.45.06A.11.11,0,0,0,661.31,68.2Zm.23-3.22-.06-.18c-.07,0-.11,0-.14.06l-.07,0a2.91,2.91,0,0,0-.33.07c0,.19.17.24.32.23l.14-.09Zm.27-1.66,0,0s0,0,0,0l-.33,0-.06.19a.29.29,0,0,0,.32.15.19.19,0,0,0,.19-.24C661.85,63.32,661.85,63.32,661.81,63.32Zm.2,3.36c-.14,0-.17.13-.16.28a1,1,0,0,0,.18.28l.14-.13a.17.17,0,0,0,.16-.2s0-.07-.12-.14A1,1,0,0,1,662,66.68Zm0-.56-.18,0,0,.22.19,0Zm.27-.29-.26,0a.32.32,0,0,1-.08.23l.29,0V66C662.3,65.91,662.34,65.87,662.33,65.83Zm-.08-1.44h-.14s-.07.09,0,.16v.14c.07,0,.11,0,.17-.13s0,0,.07,0,0,0,.11-.09a.23.23,0,0,0-.12,0A.22.22,0,0,1,662.25,64.39Z" transform="translate(-599.23 -46.94)"/><path d="M683.55,60.78a9.26,9.26,0,0,1-1.22,1.46.81.81,0,0,0,.18-.42,1.63,1.63,0,0,0,0-.44,1.47,1.47,0,0,1,0-.38c0-.1.06-.17.1-.17h0a1.21,1.21,0,0,0,0-.37.64.64,0,0,1,.2-.39c-.14,0-.16-.13-.12-.2s0-.15,0-.19l-.37,2.56a6.88,6.88,0,0,1-2.47,1.62h0a18.54,18.54,0,0,1-4.13,1,12.56,12.56,0,0,1-1.78.15c-.12,0-.23,0-.34,0s-.19,0-.3,0h0c0-.08,0-.08-.06-.09s-.19,0-.2.09,0,0,0,0l-1.15,0-1.16,6.48a.65.65,0,0,1-.84.62l-4.5-.65a.72.72,0,0,1-.62-.87l.54-2.72.07.08a1,1,0,0,0,.39-.17l-.1-.09-.18,0-.16.09.35-1.93h.11s0-.07-.06-.08l0,0L669,48.55a.68.68,0,0,1,.68-.58c6-.36,6.93-.41,7.82-.4.34,0,.67.06,1,0l1,.1h0c3.92.75,5.67,3.88,5.56,7.71A10,10,0,0,1,683.55,60.78Zm-18.19,7.56,0,0-.12,0v0Zm.41-1.55-.18,0,0,.11.18,0Zm2-3.14c-.06.18-.16.31-.21.45s-.16.32-.18.42a.17.17,0,0,0,0,.12s.07.08,0,.11a.15.15,0,0,0-.14.21c0,.15,0,.26,0,.29s0,0-.08.06a.05.05,0,0,0,0,0c-.07,0-.08.06-.08.09a.13.13,0,0,0,0,.12s.06.08-.06.14,0,0-.08,0h0c.06.12.09.2,0,.3s-.21.42-.15.54,0,.19-.06.18a1.2,1.2,0,0,0-.15.8.31.31,0,0,0-.17.12.94.94,0,0,0-.18.17v.11a3.19,3.19,0,0,1-.14.69,5.62,5.62,0,0,0-.21.67.3.3,0,0,1-.06.18.33.33,0,0,0-.1.14c0,.11-.08.84.08,1a1.42,1.42,0,0,0,.5.15,4.25,4.25,0,0,1,.46.14Zm-1.73,2.44c-.1-.09-.17-.18-.15-.25a.14.14,0,0,0-.06.1.13.13,0,0,1-.05.11Zm.12-.36a.59.59,0,0,0-.36,0l.16.13a.21.21,0,0,1,.12,0A.07.07,0,0,0,666.18,65.73Zm-.31-.42.09.13a.33.33,0,0,0,.24-.08C666.1,65.23,665.89,65.2,665.87,65.31Zm.2-.6.22,0v-.11l-.21,0Zm1.59-2.5.19,0a.15.15,0,0,0,0-.08c-.07,0-.06-.09-.09-.13l0,.11S667.67,62.17,667.66,62.21Zm.23,1h-.07l0,.22h.07Zm.53-1.82h-.08l-.12.09.07.05Zm0-.08-.07-.31h-.07l.06.31Zm.2-.64a.75.75,0,0,0,.26,0,1.09,1.09,0,0,1,.27,0,1.42,1.42,0,0,1-.16-.17c-.07-.05-.1-.09-.17-.1a.59.59,0,0,0-.23,0,1.89,1.89,0,0,1-.21.12c.11.06.14.1.1.09A.24.24,0,0,0,668.63,60.67Zm-.17-.62a1.26,1.26,0,0,0,0,.15l.09-.09a.14.14,0,0,0,0-.11l-.18,0Zm.32,2.73,0-.08-.23,0v.07Zm.5-2.46a.47.47,0,0,0-.15-.21.19.19,0,0,1-.09-.17.41.41,0,0,1-.24.08s0,0-.08,0a.83.83,0,0,1,.38.24Zm0,7-.13.35a.22.22,0,0,0,0,.11s0,.07-.05.07c.06.15.05.19,0,.18s-.07,0-.08,0a.68.68,0,0,0,.08.5Zm-.16-14.36h.07l0-.19h-.08Zm.35,8.64-.22,0,0,.19.22,0Zm-.12,5.21-.09.1a.71.71,0,0,0,0,.3Zm.58,5.27,0-.11h-.07l0,.11Zm0-21.73H670v-.11H670Zm3.23,14.06-.22,0,0,.14.22,0Zm1.62-5.22a7.88,7.88,0,0,0,2.9-1,2.82,2.82,0,0,0,1.14-1.4c.42-1.4.08-3.65-1.65-3.57l-3,.17L673,59.21C673.32,59.22,674.37,59.22,674.79,59.17Zm-1.2,4.38-.19-.21s-.21.16-.22.23l.17.14Zm.29-2.53,0-.18-.11,0,0,.18Zm.43,1.44-.26-.26,0,.26Zm1.21-.34c.07,0,.14.05.25.07l0,.18.22,0a.29.29,0,0,0,.12,0,.75.75,0,0,0-.31-.19s.05-.07.05-.11,0-.07-.06-.12A.24.24,0,0,0,675.52,62.12Zm.14.8.3,0,.53.19v-.07l0,0s0,0,0-.08h0l0,0-.15,0-.14,0,0-.3A.86.86,0,0,0,675.66,62.92Zm.26.82c.13-.13.21-.19.22-.26a.31.31,0,0,0,0-.16s-.06-.08-.1-.12,0,0-.07,0h0a0,0,0,0,0,0,0,.09.09,0,0,0-.08,0l0,.36A.29.29,0,0,1,675.92,63.74Zm.32.61a.17.17,0,0,0-.09-.16.16.16,0,0,0-.2.12Zm.19-2.1-.25,0a.52.52,0,0,0,.21.33A.22.22,0,0,0,676.43,62.25ZM676.36,64h.07c.05,0,.05-.07.06-.14l0-.11c-.18,0-.3,0-.32.1S676.25,64,676.36,64Zm.25.11c-.12,0-.2,0-.21.16l.18,0C676.63,64.25,676.64,64.18,676.61,64.14Zm0-1a.31.31,0,0,0-.08.29l.15,0s0,0,.08,0A.33.33,0,0,0,676.57,63.09Zm.52-.71s0,0,0,0l0-.08a0,0,0,0,1,0,0l-.24.12Zm.11,1.29-.3,0,0,.11.3,0Zm.56-2.35-.28-.12s-.08,0-.08.07h0c-.08,0-.08.06-.09.1s0,.11,0,.12h0a.29.29,0,0,0,.17.1.22.22,0,0,0,.24-.08Zm-.31-.46v.08l.22,0V60.9Zm.57.2h.34c0-.11-.12-.2-.23-.22Zm.34.79-.14-.09-.1.17.14.06Zm.6-2.6a.81.81,0,0,0-.36-.35Zm.46,1.49-.37-.06v.08l.36.05Zm0-3a.41.41,0,0,0,.19-.24c-.08,0-.15,0-.18-.06l-.16.09c-.09.06-.13.09-.1.13Zm-.12-.47.26,0a.26.26,0,0,0,0-.15s0,0-.06,0l-.15,0Zm0-3.09c.06.12.17.1.18,0a.11.11,0,0,1,.08,0l-.24-.11S679.32,54.15,679.36,54.16Zm.76,4c-.13-.13-.2-.18-.19-.22s-.19,0-.23,0l-.08,0A1.49,1.49,0,0,0,680.12,58.19Zm-.17.16-.13-.17-.15,0,.19.18Zm.26-.78-.29,0,0,.19C680.07,57.73,680.19,57.68,680.21,57.57Zm.39-1.18a.58.58,0,0,0,0-.19l-.16.09a0,0,0,0,0,0,0h0a.68.68,0,0,0-.24.12l.35.12C680.51,56.49,680.6,56.43,680.6,56.39Zm-.38-1-.06.44a.55.55,0,0,0,.3-.07A.46.46,0,0,0,680.22,55.44Zm.09-.88h.11l0-.11h-.11Zm.66,2.37c-.05-.16-.07-.27-.1-.28l-.07,0-.08,0a.13.13,0,0,0,.12.17Zm.57-2.87-.15,0v.07l.15,0ZM683,58.53a.62.62,0,0,0-.1-.35.12.12,0,0,0,0,.15c0,.07,0,.11-.06.14l-.25,0c0,.08,0,.11-.09.1s.1.06.21.11a.49.49,0,0,0,.17.06s0,0,.09-.06S683,58.57,683,58.53Zm-.11.25-.11,0-.12.84.11,0Z" transform="translate(-599.23 -46.94)"/><path d="M709.34,59.05,696.69,71.37l-2.92,6.18a.66.66,0,0,1-1,.38l-4.52-1.84a.75.75,0,0,1-.39-1.06l3-5.39c.29-5,.53-9.39.81-12.53.11-1.56.14-3.21.31-4.79a.72.72,0,0,1,.77-.67l4.19.29c.51,0,.71.31.7.79l-.43,10.09,1.44-1.39.16,0-.13-.1,5.83-5.52a.67.67,0,0,1,.9-.13l3.74,2.14a.77.77,0,0,1,.4.58A.85.85,0,0,1,709.34,59.05Zm-15.93-6.84c-.06,0,0-.06,0-.13a.21.21,0,0,0-.15.06s0,0,0,.08Zm1.27,22.31a.1.1,0,0,0,0-.1l.37-.84a2.12,2.12,0,0,0,.25-.5.39.39,0,0,0,.06-.22l.41-.94a.12.12,0,0,0,0-.09.1.1,0,0,1,0-.11s0-.11.07-.09a.37.37,0,0,0,.16-.26.3.3,0,0,1,0-.15.17.17,0,0,1,.06,0c0-.07.07,0,.08-.09a.38.38,0,0,0,.12-.27.71.71,0,0,1,.09-.28.43.43,0,0,1,.13-.31c0-.1.12-.19.15-.26l-.58-.25-.91,2.11a1.32,1.32,0,0,1-.13.38s0,0-.1,0l0,0c0,.07,0,.07,0,.17s0,.08,0,.11a5.71,5.71,0,0,1-.45,1c-.26.5-.4.83-.48,1s0,.07-.09,0a.14.14,0,0,0-.08.09.12.12,0,0,0,0,.12s0,0,0,0a.5.5,0,0,1-.1.32l-.12.28a.17.17,0,0,1-.06,0c-.05,0-.07,0,0,.07a.29.29,0,0,0,.12.09l-.06.13c.07.12.12.18.19.21l.14.06a.19.19,0,0,1,.08-.09s0,0,.07-.09l0-.06h0l.47-1.08A.81.81,0,0,0,694.68,74.52Zm-.11-21.8c-.13-.26-.19-.33-.26-.36a.89.89,0,0,0-.49,0,.59.59,0,0,1,0,.3l.39,0C694.42,52.77,694.54,52.78,694.57,52.72Zm.6.26-.07-.11-.08-.08c-.12,0-.22,0-.23.06A.33.33,0,0,0,695,53,.52.52,0,0,0,695.17,53Zm.06,11.47a.19.19,0,0,0-.15,0,.15.15,0,0,0-.08,0l.06,0,.08.12Zm.07,1.32,0-.07,0,0,0,.07Zm.37-.49c.1,0,.17,0,.22,0l0,0,.2.09,0-.07-.2-.09v0a1.77,1.77,0,0,0-.3-.16c-.16-.08-.21,0-.22.06a.13.13,0,0,0,.07.19A.53.53,0,0,0,695.67,65.28Zm.52.39s-.07,0-.09-.08-.05-.06-.08-.08a.7.7,0,0,0-.45.09,2.2,2.2,0,0,0,.19.12C696,65.81,696.1,65.79,696.19,65.67Zm.34-2.27.41.18a.47.47,0,0,0,.33,0c-.07,0-.09-.08-.12-.09a.4.4,0,0,0-.12-.1c-.07,0-.14-.06-.15,0S696.74,63.37,696.53,63.4Zm.47.77c0,.06.07.11.11.13l.13,0s0,0,.09,0-.1-.16-.08-.2,0-.08-.11-.12a.29.29,0,0,0-.21,0s-.08,0-.13,0a.5.5,0,0,0-.15,0s.07,0,.05.06l.07,0A.58.58,0,0,0,697,64.17Zm.24.75-.32-.18a.16.16,0,0,0-.13.1.21.21,0,0,0,.06.23.36.36,0,0,0,.23-.06Zm0-2a.12.12,0,0,0,0,.09c0,.09.12.09.27.11l.05-.1-.26-.15,0,.07Zm.34,5.23-.22,0,.19.12Zm.51-.06c.09,0,.1,0,.11-.07a.46.46,0,0,1,.32-.07.39.39,0,0,0,.16,0,.3.3,0,0,1,0-.16s0-.1,0-.13,0-.11.09-.12l.05-.11-.17-.07s-.11,0-.17-.07a.92.92,0,0,0,0,.23c-.05,0-.05,0-.09,0s-.06.06-.06.06,0,0,0,0a.84.84,0,0,1-.16.17.4.4,0,0,1-.1.15.2.2,0,0,0,0,.17.44.44,0,0,1,.06.23l.13.06a.62.62,0,0,0,.24,0s0,0,0,0v0a.31.31,0,0,0-.15-.11A.18.18,0,0,1,698.12,68.08Zm1.23-1.52-.07,0a0,0,0,0,1,0,0l-.07,0a.36.36,0,0,0-.21,0c.06.14,0,.13,0,.36h.12l.1.05.07-.17C699.34,66.67,699.32,66.63,699.35,66.56ZM701.42,62l-.06-.15c-.17-.07-.27-.12-.32-.1l-.1,0-.06.13c0,.09.07.12.17.16a.45.45,0,0,0,.19,0C701.34,62,701.38,62,701.42,62Zm7.33-3a.07.07,0,0,1,0-.1s0,0-.06-.06l-.71-.31a1.6,1.6,0,0,0-.3-.33l-.09-.16a.43.43,0,0,1-.17-.16,1,1,0,0,1-.54-.07c-.1,0-.2-.09-.2-.17a4.43,4.43,0,0,0-.53-.63,3.42,3.42,0,0,0-.65-.36.32.32,0,0,0-.33.1c-.06.13,0,.23.14.34a2,2,0,0,1,.55.48,1.38,1.38,0,0,0,.5.34l.41.17.22.22.52.47a6.8,6.8,0,0,1,.51.5,1,1,0,0,0,.3.25c.06,0,.15,0,.21.06Z" transform="translate(-599.23 -46.94)"/><path d="M713.76,64.49a3.44,3.44,0,0,1-.15-3.83l0-.07.13.09,0-.06-.13-.09c1.36-2,3.24-1.7,4.71-.71a3.2,3.2,0,0,1,.73,4.49c-1,1.41-4.26,3.1-6.09,3.44a.91.91,0,0,1-.76-.2l-1-1.09a.74.74,0,0,1,.32-1.21C712.09,65.11,713.47,64.65,713.76,64.49Zm.57-1.39-.12,0,.12.08s0-.07,0-.1Zm.48,1.07.09.07c.09,0,.11,0,.05-.07Zm.53.4.09-.12-.13-.21s-.08,0-.1,0l0,0A.85.85,0,0,0,715.34,64.57Zm.32-.94a.61.61,0,0,0-.11-.16l-.06.09A.33.33,0,0,0,715.66,63.63Zm.45.53,0-.06c0-.06,0-.08-.09-.15l-.12-.08a.13.13,0,0,0-.11,0l-.06.09a0,0,0,0,1,0,0l0,0,0,0a.37.37,0,0,0,.17.08C716,64.15,716.08,64.14,716.11,64.16Zm-.2,1.24-.09.12.07,0,.08-.12Zm.49-2.34a.19.19,0,0,1,0-.13l-.12-.09c-.07,0-.1,0-.12.06a.51.51,0,0,0,.14.18S716.32,63.05,716.4,63.06Zm.74-.44a1.7,1.7,0,0,0,0-.19.19.19,0,0,1-.13,0,.19.19,0,0,1-.13,0,1,1,0,0,0-.24,0c.06,0,.09.06.1.11l0,0s-.07,0,0,.11l.13.08c0-.11,0-.14.15-.16S717.12,62.65,717.14,62.62Zm.74-1.1.22.14s.07,0,.09-.07l0-.06s0,0,0-.05C718.06,61.46,718,61.42,717.88,61.52Z" transform="translate(-599.23 -46.94)"/><path d="M713.15,84.75c.89,1.75,2.29,2.36,3.36,1.23a2.52,2.52,0,0,0,.63-2.35,28.68,28.68,0,0,0-.68-2.83l-.24-.83s0,0,0-.08a20.74,20.74,0,0,1-.42-2.73s0,0,0,0a4.7,4.7,0,0,1,.7-2.74,8.62,8.62,0,0,1,5.29-4,7.43,7.43,0,0,1,6.87,1.34c2,1.43,4,3.49,3.76,6.13a5.08,5.08,0,0,1-1.25,2.73,9.33,9.33,0,0,1-.85,1c-.54.57-1,1-1.45,1.43a.64.64,0,0,1-1,0l-3.12-2.94a.66.66,0,0,1,0-1c.55-.6,1.13-1.27,1.71-2,.23-.35.3-.64.11-.87l0,0a1.32,1.32,0,0,0-1.76-.34,2.84,2.84,0,0,0-2,3.07,7.79,7.79,0,0,0,.29,1.84l.35,1.3c.88,3.21.72,6.41-2,8.71l0,0c-2.23,1.61-4.69,2.29-7,1.36a12.09,12.09,0,0,1-4.5-3.36,18.72,18.72,0,0,1-3-5.93.69.69,0,0,1,.47-.93l3.41-1.25a.74.74,0,0,1,1,.47A21.55,21.55,0,0,0,713.15,84.75Zm-.7,2.89-.18-.17-.08.08.19.17Zm0-1.7h-.16l.06.15.18,0Zm.38-1.11-.16-.15-.07.08.16.15Zm2.61,5.6-.22-.2c-.05,0-.08,0-.13,0s-.05,0,0,.13Zm-.09-1.1-.11-.1-.13.14.11.1Zm.48.35-.21.12c.09.07.11.1.09.12s.24.18.34.07-.08-.13-.11-.15S715.86,89.74,715.81,89.68Zm.14-.47s-.05,0-.08,0l0,0s-.05,0-.08,0,0,0-.08,0a.7.7,0,0,0,.16.25C715.93,89.34,716,89.29,716,89.21Zm1.25.46s0,0,0-.08,0,0,0-.08a.19.19,0,0,0-.15.06l-.11.11s.06,0,.08,0l.06,0h.1S717.17,89.7,717.2,89.67Zm.18,1,0-.06-.34-.22a1.47,1.47,0,0,0,.24.38A.11.11,0,0,0,717.38,90.66Zm1.17-1.29-.27-.26c.1,0,.05,0-.16,0,0,0-.08,0-.13-.08s-.27,0-.32,0l0,0c0,.11.06.16.17.26l.1.1.29.07c.14,0,.24,0,.27,0Zm-.46.53.1-.1c0-.06.08-.09,0-.11l-.16-.15-.18,0-.1.1A.71.71,0,0,0,718.09,89.9Zm1-.94a.18.18,0,0,0-.13,0l-.08,0s-.07,0-.1,0l0,0a.48.48,0,0,1-.11-.15.65.65,0,0,0-.19-.23l-.08-.08-.1.11v0a.25.25,0,0,0,0,.13c.24.28.33.41.3.39l.08.07a.23.23,0,0,0,.08.18l.08.08.08,0,.06.05.05-.05a.12.12,0,0,0,.1-.06C719.12,89.35,719.09,89.22,719.08,89ZM719,90.19a.22.22,0,0,0-.31.06.59.59,0,0,0-.1.32l.19,0a.18.18,0,0,0,.26,0,.37.37,0,0,0,0-.18A.76.76,0,0,1,719,90.19Zm.46-.33-.13-.12-.16.16.14.12Zm.39,0-.19-.18a.3.3,0,0,1-.23.08l.22.21.05-.06C719.77,89.9,719.82,89.9,719.84,89.88Zm0-2c0-.08,0-.13-.06-.16l-.11-.1-.23.14a.08.08,0,0,0,0,.07l0,0v.05l.19.18s0,0,0,0l.05-.06s0,0,.08,0S719.86,87.86,719.89,87.84Zm.07.88.1-.16s-.08-.07-.13-.07l-.08,0c-.13-.12-.24-.17-.26-.2s-.07.29,0,.39l.16,0Zm.18-4.61,0-.07v-.11l-.18.19.05,0,0,.08a.17.17,0,0,0,.08,0S720.14,84.22,720.14,84.11Zm.05,2.54H720l.06.16.18,0Zm.51-.54-.22-.25-.08.08.19.28Zm.07-3.64-.24-.22-.11.1.25.23Zm.11,6.41-.1-.1c-.06,0-.11,0-.13.08l-.1.11c.05,0,.1,0,.21,0s0,0,.08,0,0,0,.13,0a.33.33,0,0,0-.06-.11A.17.17,0,0,1,720.88,88.88Zm.52-1v0s0,0,0-.05l-.24-.23-.18.08a.29.29,0,0,0,.09.34.19.19,0,0,0,.31,0S721.43,87.87,721.4,87.84Zm-.08-2v-.21c-.16,0-.26,0-.34,0l.16.15.08,0,.06,0Zm.26-2.44.08,0s.08,0,.1-.16l-.16-.15a.62.62,0,0,0-.31.33l.22.2A.3.3,0,0,0,721.58,83.44Zm0,.24a.49.49,0,0,0-.18-.13.84.84,0,0,0,0,.27s.13,0,.32.09l0,0s.06,0,.08,0,0-.1-.08-.13Zm5.1-4.39c-.08-.08-.16-.1-.24,0l.14.13s.05,0,.08,0A.17.17,0,0,0,726.66,79.29Zm1.69-.44a.12.12,0,0,1,0-.08s0,0,0,0a.17.17,0,0,1-.08,0s0,0,0,0,0,.13,0,.1Zm.11-1.42,0-.05-.11-.11,0,.06Z" transform="translate(-599.23 -46.94)"/><path class="cls-3" d="M724.56,124h0Z" transform="translate(-599.23 -46.94)"/><path class="cls-3" d="M607.94,123.61H724.41a63.21,63.21,0,0,0-116.47,0Z" transform="translate(-599.23 -46.94)"/><path class="cls-2" d="M650.83,101.61a2.76,2.76,0,1,1-4-3.79c1-1.11,5.69-4.22,6.79-3.17S651.87,100.5,650.83,101.61Z" transform="translate(-599.23 -46.94)"/><path class="cls-2" d="M623.46,118a2.76,2.76,0,1,1-3.15-4.53c1.25-.87,6.43-3,7.3-1.72S624.71,117.12,623.46,118Z" transform="translate(-599.23 -46.94)"/><path class="cls-2" d="M663.3,114.78a2.76,2.76,0,1,1-5.47-.72c.2-1.51,2.13-6.75,3.64-6.55S663.5,113.27,663.3,114.78Z" transform="translate(-599.23 -46.94)"/><path class="cls-2" d="M685.7,96.39a2.76,2.76,0,0,1-4,3.78c-1-1.11-3.88-5.92-2.77-7S684.65,95.28,685.7,96.39Z" transform="translate(-599.23 -46.94)"/><path class="cls-2" d="M693.75,115.34a2.76,2.76,0,0,1-3.7,4.1c-1.13-1-4.35-5.59-3.32-6.72S692.62,114.32,693.75,115.34Z" transform="translate(-599.23 -46.94)"/><path class="cls-2" d="M708,104.77a2.76,2.76,0,1,1-4.45,3.27c-.9-1.23-3.13-6.35-1.9-7.25S707.11,103.55,708,104.77Z" transform="translate(-599.23 -46.94)"/><path class="cls-2" d="M727.18,140.1H604.28a2.64,2.64,0,1,1,0-5.28h122.9a2.64,2.64,0,1,1,0,5.28Z" transform="translate(-599.23 -46.94)"/><path class="cls-2" d="M726.82,151.11H603.91a2.64,2.64,0,1,1,0-5.28H726.82a2.64,2.64,0,0,1,0,5.28Z" transform="translate(-599.23 -46.94)"/></g></g></g></svg>