<svg id="Layer_1" data-name="Layer 1" xmlns="http://www.w3.org/2000/svg" viewBox="0 0 462.02 418.49"><defs><style>.cls-1{fill:#f7cd62;stroke-width:6.15px;}.cls-1,.cls-8,.cls-9{stroke:#5a2a0d;}.cls-1,.cls-3,.cls-6,.cls-8,.cls-9{stroke-miterlimit:10;}.cls-2{fill:#5a2a0d;}.cls-3{fill:#69372a;}.cls-3,.cls-6{stroke:#69372b;stroke-width:2.63px;}.cls-4{fill:#ee3524;}.cls-5{fill:#66bc46;}.cls-6{fill:#fbab3f;}.cls-7{fill:#f7da7e;}.cls-8,.cls-9{fill:none;}.cls-8{stroke-width:8.91px;}.cls-9{stroke-width:8.35px;}</style></defs><circle id="background" class="cls-1" cx="229.33" cy="209.24" r="206.13"/><path id="cap" class="cls-2" d="M350.66,404.2s-8.52-23.36-8.34-30.85c11.45-7.76,8.17-56.94-28.88-53.3C290.39,323.47,287,330.46,287,330.46h0s-18.52-18.58-43.93-6.22-19.92,45.14-19.92,45.14c-15.89-4.05-35.45,13.33-31.06,39.07S226,435,226,435l18.64,24.58Z" transform="translate(-73.97 -232.38)"/><g id="burger"><ellipse class="cls-3" cx="310.87" cy="456.89" rx="55.03" ry="19.39" transform="translate(-250.04 -36.79) rotate(-27.55)"/><path class="cls-4" d="M253.25,476.76s51.76-41.33,104-57.47c8,14.7-23.53,19.52-23.53,19.52s-26.14-.69-56.42,34.33C263.88,484.53,253.25,476.76,253.25,476.76Z" transform="translate(-73.97 -232.38)"/><path class="cls-5" d="M261.55,492.7s51.76-41.34,104-57.48c8,14.71-23.53,19.53-23.53,19.53s-26.15-.69-56.43,34.32C272.18,500.47,261.55,492.7,261.55,492.7Z" transform="translate(-73.97 -232.38)"/><path class="cls-6" d="M263,495.85s18.87,22.33,54.59,3.53c0,0,31.05-20.05,35-21.65s29.48-17.79,18.5-40.22c-2.21-4.24-13.4,4.35-13.4,4.35s-58.66,33.28-90.8,45.83C260.48,489.58,261.07,493.26,263,495.85Z" transform="translate(-73.97 -232.38)"/><path class="cls-6" d="M250.67,478s-26.11-20,29.25-59.76c69.65-43.41,82.61-1.12,82.61-1.12s.27,4.41-5.87,4.91-89.86,41.34-100.22,53.14C253,479.33,250.67,478,250.67,478Z" transform="translate(-73.97 -232.38)"/></g><path class="cls-2" d="M263.83,544.1S262.57,573.65,288.3,562c19.15-14,16.5-45.07,24.47-53.67S335,502.75,335,502.75s6.19-19.24,21.25-15.09,47.23,13.39,51.79,11.9c14.47-4.66,21.67-26.65,1.19-33.53,15.93-6.53,45.55,28.93.44,46.46s-67.1,4.77-67.1,4.77-17.13,55.4-62.32,57.85C244.47,571.76,263.83,544.1,263.83,544.1Z" transform="translate(-73.97 -232.38)"/><path class="cls-2" d="M378.48,344.61s-16.14,3.94-22.82-14.65-19.51-44.47,1.79-53.71L380.37,272s14.58-.68,19.71,12c2.48,13.47,1.49,43.85,1.49,43.85s-3.75,14.06-15.05,15.26c-.84,3.42,22.26,103.1,22.26,103.1s-5.9,10.3-13.73,2.57C394.53,437.51,378.48,344.61,378.48,344.61Z" transform="translate(-73.97 -232.38)"/><rect class="cls-7" x="363.19" y="288.08" width="4.78" height="47.38" rx="2.39" transform="translate(-150.24 -109.33) rotate(-17.33)"/><rect class="cls-7" x="373.24" y="286.07" width="4.78" height="47.38" rx="2.39" transform="translate(-124.62 -157.86) rotate(-10.62)"/><rect class="cls-7" x="384.18" y="284.76" width="4.78" height="47.38" rx="2.39" transform="translate(-95.52 -203.24) rotate(-4.2)"/><path id="folk" class="cls-2" d="M252.51,532.12,179,466s-2.7-3.14-15.3-3.44c-8.26-3.52-44.21-40.59-44.21-40.59s-.47-2.66,1.78-1.83,32,28.56,32,28.56a3.49,3.49,0,0,0,2.53-2.81c.36-2.29-32.44-30.21-32.44-30.21l34.17,27.38s2.32-.45,2.22-2.45S127,411.12,127,411.12l34.9,27.21s2.52.94,2.16-2.32-32.52-27.8-32.52-27.8-.87-2.5,1.44-1.81,45.43,34.11,45.43,34.11,4.15,14.71,6.91,17.72,76.93,63.4,76.93,63.4S265.16,534.15,252.51,532.12Z" transform="translate(-73.97 -232.38)"/><path class="cls-8" d="M460.41,306.56s10.8-27.51,16.29-29.21c0,0,21.56,6.95,36.2,31.27s18.91,41.14,18.63,43.2-36.37,13.54-36.37,13.54" transform="translate(-73.97 -232.38)"/><path class="cls-9" d="M108.86,509.64s-26.6-6.3-30.28-2.79c0,0-3.57,21.2,9.69,46.29s24.92,37.73,26.69,38.62,26.25-22,26.25-22" transform="translate(-73.97 -232.38)"/></svg>