<svg xmlns="http://www.w3.org/2000/svg" xmlns:xlink="http://www.w3.org/1999/xlink" viewBox="0 0 152.53 195.25"><defs><style>.cls-1{fill:none;}.cls-2{clip-path:url(#clip-path);}.cls-3{fill:#d96927;stroke:#d96927;}.cls-3,.cls-4,.cls-5{stroke-miterlimit:10;}.cls-3,.cls-4{stroke-width:1.63px;}.cls-4{fill:#5c9942;}.cls-4,.cls-5{stroke:#5c9942;}.cls-5{fill:#fff;stroke-width:3.67px;}.cls-6{fill:#da6927;}</style><clipPath id="clip-path" transform="translate(-52.91 -29.58)"><rect class="cls-1" width="249.49" height="249.49"/></clipPath></defs><g id="Layer_2" data-name="Layer 2"><g id="Layer_1-2" data-name="Layer 1"><g id="logo1"><g class="cls-2"><g id="plate"><path class="cls-3" d="M59.34,158.6S58,163,55,159.3s-5.27-56.4,42.8-79.08c44.95-20.29,78.87,10.2,78.87,10.2s15,2.49,20.91,16.85c0,0,11.76,28.3-14.46,12.07C168.66,107.83,172.54,93,172.54,93s-32.88-26.91-73.87-7.77C52.26,107.69,59.34,158.6,59.34,158.6Z" transform="translate(-52.91 -29.58)"/><path class="cls-4" d="M198.9,134.88s1.95-5,4.17-1,10.26,67.14-53.28,87.54c-42.31,10.13-66.87-13-66.87-13s-5.55.14-10.54-6.52-18-24.7-18-24.7-.34-2.84,1.88-1.73c1.73,1.75,19.21,26,19.21,26L77,200.36,58.71,172.27,79,198.84l1.87-1.6-18.52-28L83.2,195.78l1.46-1.25L66.55,168.11s-.62-2.78,1.94-1.53c2,2.57,17.69,25.73,17.69,25.73s6.94,8.05,1.46,13.46c4,4.16,29.13,18.87,60.42,11.38S205.84,175.67,198.9,134.88Z" transform="translate(-52.91 -29.58)"/></g><path id="cap" class="cls-5" d="M100.42,114.58,97.57,88.5S70,84.12,73.29,53.19s46.17-17.61,48.07,1.9,1.79-15.71-4.64-18.92,27.73-12.26,36.18,8.33c35.93.24,43.07,36.53,8.68,47.59C146,76.51,125.65,78.65,125.65,78.65s24.75-1,35.57,14.16c-2.38,4.28-11.54,27.36-11.54,27.36S123.15,107.32,100.42,114.58Z" transform="translate(-52.91 -29.58)"/><path class="cls-6" d="M87.47,168.05a8.75,8.75,0,0,1-3,.72,10.35,10.35,0,0,1-3.05-.23,9.94,9.94,0,0,1-2-.71,7.39,7.39,0,0,1-2.8-2.36,7.36,7.36,0,0,1-.78-1.36,10.87,10.87,0,0,1-.82-2.91c-.13-1-.22-2-.26-3a27.73,27.73,0,0,1,.12-3.16,20.73,20.73,0,0,1,.56-3.13,15.51,15.51,0,0,1,.81-2.25,7,7,0,0,1,1.3-2,7.82,7.82,0,0,1,2.75-1.8,10.66,10.66,0,0,1,3.52-.65,9.39,9.39,0,0,1,3.51.59,7.41,7.41,0,0,1,1.44.71,6.25,6.25,0,0,1,1.26,1,4.63,4.63,0,0,1,.68,1c.19.35.36.71.53,1.09a5.75,5.75,0,0,1,.41,1.75,4.22,4.22,0,0,1-.2,1.78,2.32,2.32,0,0,1-1,1.39,2.51,2.51,0,0,1-1.07.4,2.66,2.66,0,0,1-1.13-.06,1.93,1.93,0,0,1-.59-.22,1.36,1.36,0,0,1-.46-.4,2.76,2.76,0,0,1-.48-1.16,4.45,4.45,0,0,0-.39-1.22,3.38,3.38,0,0,0-.71-1,2.31,2.31,0,0,0-1.08-.64,2.24,2.24,0,0,0-1.18,0,3.13,3.13,0,0,0-1,.54,3.72,3.72,0,0,0-.82.9,4.6,4.6,0,0,0-.53,1.12,10.77,10.77,0,0,0-.32,1.9c0,.65-.08,1.31-.08,2s0,1.4.09,2.1a14.57,14.57,0,0,0,.35,2.08,5.64,5.64,0,0,0,1,1.92,3.34,3.34,0,0,0,.75.71,1.44,1.44,0,0,0,.92.25,1.52,1.52,0,0,0,.83-.33,2.61,2.61,0,0,0,.65-.63,6.43,6.43,0,0,0,.73-1.23,7.43,7.43,0,0,1,.7-1.19,2.27,2.27,0,0,1,1.15-.87,2.62,2.62,0,0,1,1.36-.06,2.82,2.82,0,0,1,1.22.64,2.54,2.54,0,0,1,.76,1.25,6.23,6.23,0,0,1,.17,2,5.26,5.26,0,0,1-.51,1.93,5.19,5.19,0,0,1-1.39,1.71A8.2,8.2,0,0,1,87.47,168.05Zm.15-20.38a.37.37,0,0,0,.31.18.51.51,0,0,0,.33-.11.52.52,0,0,0,.18-.29.42.42,0,0,0-.08-.37.59.59,0,0,0-.23-.2,3.28,3.28,0,0,0-.37-.22l-.37-.2-.26-.16a4.26,4.26,0,0,0-1.06-.35,5.22,5.22,0,0,0-1.11-.11.46.46,0,0,0-.5.46.44.44,0,0,0,.13.33.47.47,0,0,0,.37.14h.52a2.81,2.81,0,0,1,.53.08,3.94,3.94,0,0,1,.82.34Zm1.24.21a.29.29,0,0,0-.2.3.64.64,0,0,0,.14.35.5.5,0,0,0,.31.2.32.32,0,0,0,.34-.14c.2-.24.23-.46.08-.65S89.15,147.74,88.86,147.88Z" transform="translate(-52.91 -29.58)"/><path class="cls-6" d="M104.32,168.23c-1.31.1-2.61.17-3.91.2s-2.6,0-3.9-.08l-1.18-.06a2.57,2.57,0,0,1-1.11-.31,1.67,1.67,0,0,1-.71-.66,2.9,2.9,0,0,1-.38-.92q-.06-.33-.12-1.08c0-.5-.08-1.06-.12-1.69s-.08-1.29-.11-2-.06-1.37-.08-2,0-1.21-.06-1.72,0-.87,0-1.1,0-.73,0-1.27,0-1.13.08-1.79.09-1.35.16-2.06.13-1.4.21-2.05.18-1.23.28-1.75a5.46,5.46,0,0,1,.34-1.17,1.84,1.84,0,0,1,.74-.93,2.11,2.11,0,0,1,.72-.24l.74-.07a38.51,38.51,0,0,1,5.48.06c1.82.14,3.65.3,5.48.46l.36.08a.84.84,0,0,1,.33.2,1.14,1.14,0,0,1,.29.39,2.48,2.48,0,0,1,.17.48,2.64,2.64,0,0,1,.08.77,5.55,5.55,0,0,1-.11.89,3.05,3.05,0,0,1-.28.82,2.09,2.09,0,0,1-.43.59,1.14,1.14,0,0,1-.65.27,8.34,8.34,0,0,1-1.52,0l-2.29-.09c-.81,0-1.57-.09-2.29-.15s-1.23-.12-1.52-.16c-.17.81-.32,1.61-.47,2.42s-.24,1.61-.31,2.41c.25,0,.65.05,1.21.07l1.78.09c.63,0,1.23.09,1.78.15a6.57,6.57,0,0,1,1.18.22,1,1,0,0,1,.65.71,2.59,2.59,0,0,1,0,.51c0,.22,0,.45,0,.7s0,.49-.07.71a1.79,1.79,0,0,1-.11.5,1.44,1.44,0,0,1-.58.74,2.53,2.53,0,0,1-1.2.31c-.54,0-1.12.06-1.71,0s-1.18,0-1.74-.09-1-.09-1.3-.11q0,1,.09,1.95c0,.64.08,1.29.13,2a20.06,20.06,0,0,0,2.32,0l2.29-.11c.44,0,.86-.06,1.29-.11a6.08,6.08,0,0,1,1.28,0,2.9,2.9,0,0,1,.75.17,1.52,1.52,0,0,1,.61.45,1.9,1.9,0,0,1,.35.89,5.32,5.32,0,0,1,0,1,5.8,5.8,0,0,1-.08.91,1.69,1.69,0,0,1-.36.83,1.11,1.11,0,0,1-.43.4,2.6,2.6,0,0,1-.56.22,4.75,4.75,0,0,1-.74.12Zm-2.17-3.16h1.51q.47,0,.9,0a2.85,2.85,0,0,0,.62-.09.45.45,0,0,0,.28-.53.4.4,0,0,0-.43-.37l-.36,0-.54,0-.54,0-.36,0-.76,0a1,1,0,0,0-.69.13.38.38,0,0,0-.11.51A.49.49,0,0,0,102.15,165.07ZM104,147.26l.34,0,.45.07a2.17,2.17,0,0,0,.44,0,.47.47,0,0,0,.31-.11.37.37,0,0,0,.17-.42.44.44,0,0,0-.29-.35.36.36,0,0,0-.2-.06H105l-.61,0-.9-.07-.91,0a3.34,3.34,0,0,0-.59,0,.41.41,0,0,0-.34.47.44.44,0,0,0,.41.43l.37,0,.59,0h1ZM106,165a.41.41,0,0,0,.34,0,.45.45,0,0,0,.15-.75.48.48,0,0,0-.52-.13.44.44,0,0,0-.27.47A.43.43,0,0,0,106,165Zm.25-17.53a.44.44,0,0,0,.48.19.45.45,0,0,0,.35-.38.44.44,0,0,0-.2-.49.42.42,0,0,0-.54,0,.52.52,0,0,0-.2.32A.35.35,0,0,0,106.24,147.48Z" transform="translate(-52.91 -29.58)"/><path class="cls-6" d="M119.21,168.7a6.39,6.39,0,0,1-2.23.09,9.91,9.91,0,0,1-1-.17,2.75,2.75,0,0,1-.92-.39,1.66,1.66,0,0,1-.57-.48,7.17,7.17,0,0,1-.45-.63c-.29-.48-.56-1-.81-1.46s-.48-1-.71-1.52c-.51-1.17-1-2.37-1.45-3.57a38.16,38.16,0,0,1-1.18-3.67c-.17-.54-.31-1.08-.43-1.63s-.26-1.09-.41-1.63c-.16-.7-.33-1.4-.51-2.09a18.43,18.43,0,0,1-.39-2.12q-.06-.52-.09-1.05a2.71,2.71,0,0,1,.13-1,1.35,1.35,0,0,1,.58-.81,3.17,3.17,0,0,1,.92-.46,6.36,6.36,0,0,1,1-.25c.31-.06.63-.1,1-.13a2.72,2.72,0,0,1,.94.1,2,2,0,0,1,.56.21,1.24,1.24,0,0,1,.44.41,3.07,3.07,0,0,1,.41,1c.14.49.26,1,.37,1.55s.22,1.08.3,1.58.14.87.18,1.1c.21,1.2.44,2.39.69,3.56s.54,2.36.89,3.53c.21.73.43,1.45.67,2.17a9.39,9.39,0,0,0,1,2.08,9.69,9.69,0,0,0,1.36-2.43c.33-.88.62-1.76.87-2.65a40.85,40.85,0,0,0,1-5c.22-1.69.5-3.37.85-5,.09-.31.19-.62.31-.94a1.61,1.61,0,0,1,.59-.76,2.48,2.48,0,0,1,1.15-.4,6.42,6.42,0,0,1,1.24,0,8.09,8.09,0,0,1,1.14.21,2,2,0,0,1,1,.56,1.73,1.73,0,0,1,.39,1,7.82,7.82,0,0,1,0,1.38,12.82,12.82,0,0,1-.17,1.42c-.08.47-.15.86-.22,1.17a50.68,50.68,0,0,1-1.76,7.17,38.76,38.76,0,0,1-2.94,6.73,12.63,12.63,0,0,1-.78,1.23,6.52,6.52,0,0,1-1,1.06,5.51,5.51,0,0,1-.88.61A4.59,4.59,0,0,1,119.21,168.7ZM113,149.8a.45.45,0,0,0,.23.33.5.5,0,0,0,.34,0,.49.49,0,0,0,.28-.19.51.51,0,0,0,.08-.38c-.09-.29-.16-.58-.24-.87s-.16-.58-.26-.87a4.19,4.19,0,0,0-.22-.59,2.31,2.31,0,0,0-.31-.52.47.47,0,0,0-.83.31.53.53,0,0,0,.12.31,1.13,1.13,0,0,1,.19.31,8.22,8.22,0,0,1,.35,1.06C112.85,149.1,112.93,149.45,113,149.8Zm.65,1.86a.46.46,0,0,0,.49-.17.4.4,0,0,0,0-.51.47.47,0,0,0-.48-.26.38.38,0,0,0-.38.35A.45.45,0,0,0,113.67,151.66Z" transform="translate(-52.91 -29.58)"/><path class="cls-6" d="M133,168.2a3.72,3.72,0,0,1-1.3.15,3.43,3.43,0,0,1-1.27-.3,2.41,2.41,0,0,1-.71-.52,1.67,1.67,0,0,1-.43-.72,3.93,3.93,0,0,1-.2-.95c0-.32-.07-.63-.11-.94-.09-.91-.14-1.81-.17-2.7s-.05-1.77-.05-2.66c0-.06,0-.2,0-.42s0-.44,0-.67l0-.66c0-.22,0-.36,0-.42,0-.82,0-1.65,0-2.48s.09-1.65.15-2.47c.06-.67.12-1.31.17-1.94s.13-1.27.23-1.91c0-.3.1-.62.18-.92a5.56,5.56,0,0,1,.29-.9,4.79,4.79,0,0,1,.34-.59,1.17,1.17,0,0,1,.5-.43,1.82,1.82,0,0,1,.86-.24,10.09,10.09,0,0,1,2,.16,3.74,3.74,0,0,1,1,.34,2.25,2.25,0,0,1,.76.59,1.28,1.28,0,0,1,.26.91,7.54,7.54,0,0,1-.17,1.24c-.09.41-.19.83-.29,1.24a31.55,31.55,0,0,0-.81,5.11c-.06.91-.09,1.81-.09,2.69s0,1.79,0,2.7.08,1.72.17,2.55.15,1.69.17,2.56c0,.29,0,.58,0,.88a1.79,1.79,0,0,1-.25.82,1.24,1.24,0,0,1-.51.56A4.07,4.07,0,0,1,133,168.2Zm.72-19a.45.45,0,0,0,0,.39.51.51,0,0,0,.23.25.57.57,0,0,0,.34,0,.36.36,0,0,0,.28-.24,2.47,2.47,0,0,0,.13-.48,4,4,0,0,1,.09-.48,2.84,2.84,0,0,0-.25-1.74,1.39,1.39,0,0,0-.54-.6.88.88,0,0,0-.76-.17.46.46,0,0,0-.29.2.41.41,0,0,0,0,.31.49.49,0,0,0,.17.28.57.57,0,0,0,.36.1s0,0,.07.05l.08.08a.94.94,0,0,1,.28.54,2.13,2.13,0,0,1,0,.61,2.48,2.48,0,0,1-.05.44A1.24,1.24,0,0,1,133.68,149.15Zm-.22,2.08a.46.46,0,0,0,.45.06.48.48,0,0,0,.29-.34.5.5,0,0,0-.15-.5.42.42,0,0,0-.5,0,.48.48,0,0,0-.28.39A.43.43,0,0,0,133.46,151.23Z" transform="translate(-52.91 -29.58)"/><path class="cls-6" d="M148.45,168.05a8.75,8.75,0,0,1-3,.72,10.35,10.35,0,0,1-3.05-.23,9.94,9.94,0,0,1-2-.71,7.39,7.39,0,0,1-2.8-2.36,6.79,6.79,0,0,1-.77-1.36,10.18,10.18,0,0,1-.82-2.91q-.21-1.51-.27-3a25.61,25.61,0,0,1,.13-3.16,19.53,19.53,0,0,1,.55-3.13,15.51,15.51,0,0,1,.81-2.25,7,7,0,0,1,1.3-2,7.77,7.77,0,0,1,2.76-1.8,10.55,10.55,0,0,1,3.51-.65,9.48,9.48,0,0,1,3.52.59,8,8,0,0,1,1.44.71,6.48,6.48,0,0,1,1.25,1,4.29,4.29,0,0,1,.68,1c.19.35.36.71.53,1.09a5.48,5.48,0,0,1,.42,1.75,4.57,4.57,0,0,1-.2,1.78,2.38,2.38,0,0,1-1,1.39,2.52,2.52,0,0,1-1.06.4,2.65,2.65,0,0,1-1.13-.06,1.75,1.75,0,0,1-.59-.22,1.39,1.39,0,0,1-.47-.4,3,3,0,0,1-.48-1.16,4.8,4.8,0,0,0-.38-1.22,3.6,3.6,0,0,0-.72-1,2.31,2.31,0,0,0-1.08-.64,2.24,2.24,0,0,0-1.18,0,3.13,3.13,0,0,0-1,.54,3.72,3.72,0,0,0-.82.9,4.57,4.57,0,0,0-.52,1.12,9.93,9.93,0,0,0-.33,1.9c-.05.65-.08,1.31-.08,2s0,1.4.1,2.1a13.27,13.27,0,0,0,.34,2.08,4.9,4.9,0,0,0,.37,1,5.4,5.4,0,0,0,.59.95,3.38,3.38,0,0,0,.76.71,1.42,1.42,0,0,0,.91.25,1.58,1.58,0,0,0,.84-.33,2.79,2.79,0,0,0,.65-.63,7,7,0,0,0,.73-1.23,6.71,6.71,0,0,1,.69-1.19,2.27,2.27,0,0,1,1.15-.87,2.62,2.62,0,0,1,1.36-.06,2.77,2.77,0,0,1,1.22.64,2.47,2.47,0,0,1,.76,1.25,5.7,5.7,0,0,1,.17,2,5.26,5.26,0,0,1-.51,1.93,5.07,5.07,0,0,1-1.39,1.71A8.2,8.2,0,0,1,148.45,168.05Zm.15-20.38a.38.38,0,0,0,.31.18.47.47,0,0,0,.33-.11.52.52,0,0,0,.18-.29.42.42,0,0,0-.07-.37.67.67,0,0,0-.23-.2,3.44,3.44,0,0,0-.38-.22l-.37-.2-.26-.16a4.18,4.18,0,0,0-1.05-.35,5.38,5.38,0,0,0-1.12-.11.45.45,0,0,0-.37.14.47.47,0,0,0-.12.32.45.45,0,0,0,.49.47h.53a2.83,2.83,0,0,1,.52.08,3.73,3.73,0,0,1,.82.34C148.07,147.35,148.34,147.5,148.6,147.67Zm1.24.21a.29.29,0,0,0-.2.3.64.64,0,0,0,.14.35.53.53,0,0,0,.31.2.32.32,0,0,0,.34-.14c.21-.24.23-.46.08-.65S150.13,147.74,149.84,147.88Z" transform="translate(-52.91 -29.58)"/><path class="cls-6" d="M157.93,168.2a3.32,3.32,0,0,1-1.06.14,4.12,4.12,0,0,1-1.06-.17,2.67,2.67,0,0,1-.92-.47,1.8,1.8,0,0,1-.59-.77,5,5,0,0,1-.26-1.1c-.07-.48-.13-1-.17-1.66s-.08-1.27-.11-2-.06-1.35-.08-2,0-1.18,0-1.69,0-.89,0-1.16a38.49,38.49,0,0,1,.06-4.3c.11-1.43.26-2.85.47-4.28a12.8,12.8,0,0,1,.29-1.53,2.85,2.85,0,0,1,.73-1.32,1.62,1.62,0,0,1,.88-.42,5.51,5.51,0,0,1,1.07,0,8.94,8.94,0,0,1,1,.11,3.52,3.52,0,0,1,1.63.6,1.68,1.68,0,0,1,.46.46,1.45,1.45,0,0,1,.19.93,7.4,7.4,0,0,1-.17,1.24l-.3,1.24c-.18.79-.34,1.57-.46,2.34s-.23,1.55-.31,2.34a15.58,15.58,0,0,1,3-.16,15.42,15.42,0,0,1,2.94.41c0-1.08.11-2.15.19-3.23s.19-2.14.34-3.22c.08-.47.19-.95.31-1.42a2.75,2.75,0,0,1,.68-1.24,1.5,1.5,0,0,1,.93-.43,5.35,5.35,0,0,1,1.05,0c.37,0,.76.06,1.16.12a3.87,3.87,0,0,1,1.09.32,2.45,2.45,0,0,1,.79.62,1.39,1.39,0,0,1,.28.95,6.42,6.42,0,0,1-.16,1.07c-.1.52-.22,1.09-.34,1.69s-.24,1.16-.36,1.68-.18.89-.2,1.07a32,32,0,0,0-.31,3.9c0,1.31,0,2.61,0,3.91,0,.29,0,.74.1,1.36s.11,1.26.15,1.92,0,1.29,0,1.89a3.73,3.73,0,0,1-.21,1.3,1.3,1.3,0,0,1-.45.53c-.2.12-.41.23-.64.34a3.56,3.56,0,0,1-1,.18,4.31,4.31,0,0,1-1-.06,2.81,2.81,0,0,1-.93-.34,1.86,1.86,0,0,1-.68-.62,3.73,3.73,0,0,1-.43-1.42c-.11-.66-.18-1.36-.24-2.09s-.08-1.44-.09-2.13,0-1.19,0-1.54a6.77,6.77,0,0,0-3-.58,14.3,14.3,0,0,0-3.1.42c0,.33,0,.85.1,1.55s.12,1.43.17,2.18.07,1.47.06,2.16a3.7,3.7,0,0,1-.23,1.45,1.35,1.35,0,0,1-.53.61A2.77,2.77,0,0,1,157.93,168.2Zm.74-19a.5.5,0,0,0,0,.34.48.48,0,0,0,.15.25.47.47,0,0,0,.26.11.42.42,0,0,0,.31-.11.77.77,0,0,0,.24-.37,3,3,0,0,0,.1-.54c0-.2,0-.4,0-.59a3,3,0,0,0,0-.48,3.22,3.22,0,0,0-.2-.7,1.56,1.56,0,0,0-.39-.6,1.31,1.31,0,0,0-.6-.36.57.57,0,0,0-.6.14.39.39,0,0,0-.05.51.55.55,0,0,0,.51.26,1.63,1.63,0,0,1,.44,1A2.4,2.4,0,0,1,158.67,149.15Zm-.09,2.14a.48.48,0,0,0,.46-.06.44.44,0,0,0,.19-.44.47.47,0,0,0-.31-.41.41.41,0,0,0-.5.13.55.55,0,0,0-.12.42A.44.44,0,0,0,158.58,151.29Z" transform="translate(-52.91 -29.58)"/><path class="cls-6" d="M184.56,168.23c-1.3.1-2.6.17-3.9.2s-2.6,0-3.9-.08l-1.18-.06a2.65,2.65,0,0,1-1.12-.31,1.79,1.79,0,0,1-.71-.66,2.87,2.87,0,0,1-.37-.92q-.06-.33-.12-1.08c0-.5-.09-1.06-.13-1.69s-.07-1.29-.11-2-.05-1.37-.07-2,0-1.21-.06-1.72,0-.87,0-1.1,0-.73,0-1.27,0-1.13.08-1.79.09-1.35.15-2.06.14-1.4.22-2.05.17-1.23.28-1.75a4.94,4.94,0,0,1,.34-1.17,1.79,1.79,0,0,1,.74-.93,2.13,2.13,0,0,1,.71-.24l.75-.07a38.54,38.54,0,0,1,5.48.06c1.82.14,3.64.3,5.48.46l.36.08a.74.74,0,0,1,.32.2,1.16,1.16,0,0,1,.3.39,2.48,2.48,0,0,1,.17.48,2.64,2.64,0,0,1,.08.77,7,7,0,0,1-.11.89,4,4,0,0,1-.28.82,2.11,2.11,0,0,1-.44.59,1.09,1.09,0,0,1-.65.27,8.22,8.22,0,0,1-1.51,0l-2.3-.09c-.8,0-1.57-.09-2.29-.15s-1.23-.12-1.52-.16c-.16.81-.32,1.61-.46,2.42s-.25,1.61-.31,2.41c.25,0,.65.05,1.21.07l1.78.09c.63,0,1.22.09,1.78.15a6.57,6.57,0,0,1,1.18.22,1,1,0,0,1,.65.71,2.72,2.72,0,0,1,0,.51c0,.22,0,.45,0,.7s0,.49-.06.71a2.25,2.25,0,0,1-.11.5,1.41,1.41,0,0,1-.59.74,2.45,2.45,0,0,1-1.19.31c-.55,0-1.12.06-1.72,0s-1.17,0-1.73-.09-1-.09-1.3-.11q0,1,.09,1.95l.12,2a20.23,20.23,0,0,0,2.33,0l2.29-.11c.43,0,.86-.06,1.28-.11a6.18,6.18,0,0,1,1.29,0,2.83,2.83,0,0,1,.74.17,1.49,1.49,0,0,1,.62.45,1.79,1.79,0,0,1,.34.89,5.32,5.32,0,0,1,0,1,5.75,5.75,0,0,1-.07.91,1.79,1.79,0,0,1-.36.83,1.19,1.19,0,0,1-.43.4,2.82,2.82,0,0,1-.56.22,5,5,0,0,1-.74.12Zm-2.17-3.16h1.52q.47,0,.9,0a2.85,2.85,0,0,0,.62-.09.45.45,0,0,0,.28-.53.4.4,0,0,0-.44-.37,2.83,2.83,0,0,0-.35,0l-.54,0-.55,0-.35,0-.76,0a1,1,0,0,0-.7.13.4.4,0,0,0-.11.51A.51.51,0,0,0,182.39,165.07Zm1.86-17.81.34,0,.45.07a2.29,2.29,0,0,0,.45,0,.47.47,0,0,0,.31-.11.38.38,0,0,0,.17-.42.44.44,0,0,0-.29-.35.36.36,0,0,0-.2-.06h-.21l-.6,0-.9-.07-.91,0a3.3,3.3,0,0,0-.59,0,.4.4,0,0,0-.34.47.43.43,0,0,0,.4.43l.37,0,.59,0h1Zm2,17.75a.43.43,0,0,0,.35,0,.39.39,0,0,0,.24-.23.44.44,0,0,0-.09-.52.49.49,0,0,0-.53-.13.45.45,0,0,0-.26.47A.43.43,0,0,0,186.23,165Zm.25-17.53a.46.46,0,0,0,.84-.19.46.46,0,0,0-.2-.49.42.42,0,0,0-.54,0,.58.58,0,0,0-.21.32A.37.37,0,0,0,186.48,147.48Z" transform="translate(-52.91 -29.58)"/><path class="cls-6" d="M114.79,130.89c4,2.67,8.27,3,12.88,3.15-4.09,2.64-10.88,1.66-12.88-3.15Z" transform="translate(-52.91 -29.58)"/><circle class="cls-6" cx="77.73" cy="95.43" r="2.2"/><circle class="cls-6" cx="62.91" cy="92.58" r="2.2"/></g></g></g></g></svg>