<svg xmlns="http://www.w3.org/2000/svg" viewBox="0 0 160.49 157.21"><defs><style>.cls-1{fill:#dbb772;}.cls-2{fill:#2c150e;}.cls-3{fill:#fff;}</style></defs><g id="Layer_2" data-name="Layer 2"><g id="Layer_1-2" data-name="Layer 1"><g id="logo2"><circle class="cls-1" cx="82.09" cy="75.66" r="75.66"/><path class="cls-2" d="M0,55.17V14.27H16.54v7.35H7.35v9.43h6.78v7.34H7.35V55.17Z"/><path class="cls-2" d="M17.57,14.27h7.35V55.16H17.57Z"/><path class="cls-2" d="M36.8,14.27h7.67l-2.3,40.89H28.28L26,14.27h7.68l1.23,33.54h.66Z"/><path class="cls-2" d="M52.79,31.05h8v7.34h-8v9.42H62v7.36H45.44V14.27H62v7.35H52.79Z"/><path class="cls-2" d="M10.85,61.28h7.67l-2.3,40.89H2.33L0,61.28H7.71L8.94,94.82H9.6Z"/><path class="cls-2" d="M19.58,61.28h7.35v40.89H19.58Z"/><path class="cls-2" d="M40.81,102.17,36,85.4h-.65v16.77H28V61.28h7.35l4.8,16.77h.65V61.28h7.35v40.89Z"/><path class="cls-2" d="M56.5,78.05h8V85.4h-8v9.42h9.18v7.35H49.15V61.28H65.68v7.35H56.5Z"/><path class="cls-2" d="M77.74,69.73a1.87,1.87,0,0,0-1.82-1.88,1.8,1.8,0,0,0-1.32.54,1.83,1.83,0,0,0-.54,1.29v2.14a6.87,6.87,0,0,0,.27,1.87,6.57,6.57,0,0,0,1.55,2.69l2.33,2.46,3.23,3.39a13.24,13.24,0,0,1,3.64,9.12v3.56a8,8,0,0,1-8,8h-2.3a8,8,0,0,1-8-8v-6.5h7.35v5.31a1.87,1.87,0,0,0,1.82,1.88,1.8,1.8,0,0,0,1.32-.54,1.83,1.83,0,0,0,.54-1.29V91.64a6.59,6.59,0,0,0-1.82-4.56l-1.19-1.25-4.37-4.61a12,12,0,0,1-.94-1.09,13.25,13.25,0,0,1-2.71-8V68.53a8.32,8.32,0,0,1,.08-1.12c0-.17,0-.34.09-.51a8.51,8.51,0,0,1,.28-1,8.06,8.06,0,0,1,7.59-5.39h2.3a8,8,0,0,1,8,8V75H77.74Z"/><path class="cls-2" d="M59.94,109.49H160.49s-4.39,35.63-47.83,35.63C58.48,144.14,59.94,109.49,59.94,109.49Z"/><path class="cls-2" d="M94.92,146.8c2.77,0,16.11,4.27,36.77-.12l-.16,10.53H95.09Z"/><path class="cls-2" d="M108.28,99.45c-3.28-7.89-5.51-17.69-.35-25.3A12.18,12.18,0,0,0,109,71.71l.28-1.32c.86-5.57-1.37-11.36-4.14-16.1a1.68,1.68,0,1,1,2.9-1.68,34.78,34.78,0,0,1,4,11.87,19.21,19.21,0,0,1-.63,8L110.81,74a29,29,0,0,1-1.63,2.71c-4.13,6.6-2.11,15.29.35,22.19a.68.68,0,0,1-1.25.55Z"/><path class="cls-2" d="M132.85,99.45c-3.28-7.89-5.5-17.69-.35-25.3a11.64,11.64,0,0,0,1.09-2.44l.29-1.32c.86-5.57-1.38-11.36-4.15-16.1a1.68,1.68,0,1,1,2.91-1.68,34.76,34.76,0,0,1,4,11.87,19.21,19.21,0,0,1-.63,8L135.38,74a27,27,0,0,1-1.63,2.71c-4.12,6.6-2.1,15.29.35,22.19a.68.68,0,0,1-1.25.55Z"/><path class="cls-2" d="M119.73,99.33c-3.28-7.89-5.5-17.7-.35-25.3a11.15,11.15,0,0,0,1.09-2.44l.29-1.33c.86-5.56-1.38-11.35-4.15-16.09a1.68,1.68,0,1,1,2.91-1.68,34.69,34.69,0,0,1,4,11.87,19,19,0,0,1-.63,8l-.64,1.52a28.09,28.09,0,0,1-1.62,2.71c-4.13,6.59-2.11,15.29.34,22.19a.68.68,0,0,1-1.25.55Z"/><path class="cls-3" d="M76.27,7.82C98.46,2.82,123.05,15,133,35.35,118.5,17.6,99.42,7.46,76.27,7.82Z"/></g></g></g></svg>