<svg xmlns="http://www.w3.org/2000/svg" viewBox="0 0 417.83 288.7"><defs><style>.cls-1{fill:#42180c;stroke-linejoin:round;stroke-width:8.51px;}.cls-1,.cls-4,.cls-5,.cls-6{stroke:#fdbe31;}.cls-2{fill:#fdbe31;}.cls-3{fill:#fff;}.cls-4,.cls-5,.cls-6{fill:none;stroke-miterlimit:10;}.cls-4{stroke-width:2.19px;}.cls-5{stroke-width:1.76px;}.cls-6{stroke-width:2.03px;}</style></defs><g id="Layer_2" data-name="Layer 2"><g id="Layer_1-2" data-name="Layer 1"><path id="cap" class="cls-1" d="M352.76,284.44s7.85-57.23,16.62-72.46c33.23-3.69,81.23-108.46-2.31-140.77-53.25-17.7-68.31-6.92-68.31-6.92h0s-18.92-58.15-87.23-60S118.3,75.83,118.3,75.83C88.76,50.44,27.38,65.21,8,122.9s42.93,90.93,42.93,90.93l12.46,70.61Z"/><polygon class="cls-2" points="247.79 147.03 233.9 128.37 230.67 128.37 241.33 147.03 247.79 147.03"/><polygon class="cls-2" points="247.46 148.74 241.26 148.74 220.79 176.01 247.46 148.74"/><polygon class="cls-2" points="190.6 128.37 176.71 147.03 183.17 147.03 193.83 128.37 190.6 128.37"/><polygon class="cls-2" points="177.04 148.74 203.7 176.01 183.24 148.74 177.04 148.74"/><polygon class="cls-2" points="223.28 148.74 214.25 181.88 239.12 148.74 223.28 148.74"/><polygon class="cls-2" points="185.38 148.74 210.25 181.88 201.22 148.74 185.38 148.74"/><polygon class="cls-2" points="201.18 147.03 205.05 128.37 195.8 128.37 185.14 147.03 201.18 147.03"/><polygon class="cls-2" points="239.36 147.03 228.7 128.37 219.45 128.37 223.32 147.03 239.36 147.03"/><polygon class="cls-2" points="212.25 182.72 221.5 148.74 203 148.74 212.25 182.72"/><polygon class="cls-2" points="221.57 147.03 217.71 128.37 212.25 128.37 206.79 128.37 202.93 147.03 221.57 147.03"/><path class="cls-3" d="M236,40.42,192.7,98.27a3.48,3.48,0,0,0,4.23,3.2c3.66-5.44,20-31.88,20-31.88s4.3,1.39,7.16-1.89S238.82,45.58,236,40.42Z"/><path class="cls-3" d="M188.16,39.78l12.66,11.77a5.75,5.75,0,0,1-1,7.43c3,3.83,33.33,37.75,33.33,37.75a4.77,4.77,0,0,1-5.21,4.12c-2.63-3.51-31.19-39.36-31.19-39.36s-5.36,3.22-7.19.29-10.41-14.89-10.41-14.89L189.93,58.4l-8.05-12.95,10.68,11.12-8.37-13,10.92,11.12L186.32,42,197.4,52.48Z"/><path class="cls-2" d="M281,163.49c-1.43-.05-2.59-.07-3.5-.07s-2.09,0-3.51.07a217.66,217.66,0,0,0-12-33.56l7.57.23q3.06,11.25,7.94,25.48,4.71-14,8-25.52l7.5-.19A218.77,218.77,0,0,0,281,163.49Z"/><path class="cls-2" d="M301.7,163.47h-7.15q.63-6.61.63-12.52t-.63-12.56h7.15q-.61,6.66-.61,12.56T301.7,163.47Zm-3.56-27.71a3.41,3.41,0,0,1-2.52-1,3.14,3.14,0,0,1-1-2.29,3.11,3.11,0,0,1,1-2.28,3.38,3.38,0,0,1,2.52-1,3.35,3.35,0,0,1,2.49,1,3.11,3.11,0,0,1,1,2.28,3.14,3.14,0,0,1-1,2.29A3.38,3.38,0,0,1,298.14,135.76Z"/><path class="cls-2" d="M329.12,163.54c-2.3-.17-4.77-.29-7.43-.35q.75-8,.75-11.72a19.82,19.82,0,0,0-.61-4.92,8.21,8.21,0,0,0-1.59-3.33,2.93,2.93,0,0,0-2.23-1.15,2.71,2.71,0,0,0-1.63.71,9.64,9.64,0,0,0-1.77,2.05,17,17,0,0,0-1.52,2.86c-.06,1-.09,2.07-.09,3.31a118,118,0,0,0,.79,12.19q-4,.06-7.5.32a90.09,90.09,0,0,0,0-25q3.52.25,7.48.33l-.14,1.47,0,0a17.33,17.33,0,0,0,1.81-.85,8.44,8.44,0,0,1,3.77-.84,10.36,10.36,0,0,1,4.39.82,7.06,7.06,0,0,1,2.73,2.12,8.22,8.22,0,0,1,1.36,2.81,18.85,18.85,0,0,1,.5,3c.08,1,.12,1.9.12,2.74A109.52,109.52,0,0,0,329.12,163.54Z"/><path class="cls-2" d="M345.41,163.91a10.7,10.7,0,0,1-6.06-1.8,12.92,12.92,0,0,1-4.27-4.74,14.2,14.2,0,0,1,0-12.9,12.73,12.73,0,0,1,4.27-4.73,10.7,10.7,0,0,1,6.06-1.8,10.9,10.9,0,0,1,6,1.83,12.4,12.4,0,0,1,4.36,4.95,14.36,14.36,0,0,1,1.45,6.51l0,1.48q-8.18.33-16.66.91a11.5,11.5,0,0,0,1.79,5.12c1,1.45,2,2.17,3.06,2.17a2.58,2.58,0,0,0,1.45-.44,5.2,5.2,0,0,0,1.2-1.15,7.8,7.8,0,0,0,.86-1.36,13,13,0,0,0,.61-1.41q3.59-.09,6.8-.28c-.47.85-.85,1.51-1.15,2a12.39,12.39,0,0,1-1.25,1.67,13,13,0,0,1-2,1.84,11.09,11.09,0,0,1-2.82,1.52A10.2,10.2,0,0,1,345.41,163.91Zm-5-13.78c4.63-.09,8-.19,10.08-.28a14.52,14.52,0,0,0-.85-4.36,9,9,0,0,0-1.91-3.37,3.21,3.21,0,0,0-2.28-1.18,3.3,3.3,0,0,0-2.33,1.22,9.06,9.06,0,0,0-1.92,3.51A14.62,14.62,0,0,0,340.37,150.13Z"/><path class="cls-2" d="M370.89,163.68a14,14,0,0,1-4.72-.81,10.25,10.25,0,0,1-3.89-2.44,10.42,10.42,0,0,1-2.43-4.91q3.25.25,6.3.33a7.09,7.09,0,0,0,1.93,3.69,4.3,4.3,0,0,0,2.85,1.07,4.12,4.12,0,0,0,2.43-.76,5.62,5.62,0,0,0,1.7-1.95,4.81,4.81,0,0,0,.63-2.26,2.73,2.73,0,0,0-.55-1.84,4.56,4.56,0,0,0-1.78-1.14,28.93,28.93,0,0,0-3.2-1,35.85,35.85,0,0,1-4.85-1.65,9.06,9.06,0,0,1-3.18-2.12,4.29,4.29,0,0,1-1.13-3,4.92,4.92,0,0,1,1.1-3,7.86,7.86,0,0,1,3.2-2.36,12.47,12.47,0,0,1,5-.92,15.1,15.1,0,0,1,4.13.59A9.51,9.51,0,0,1,378,141a6.7,6.7,0,0,1,2,4.07q-3.17-.25-6.16-.33a3.71,3.71,0,0,0-1.26-2.43,3.87,3.87,0,0,0-2.31-.66,3.81,3.81,0,0,0-2.43.76,2.13,2.13,0,0,0-1,1.65,1.55,1.55,0,0,0,1,1.45,23.45,23.45,0,0,0,3.85,1.25l.14,0a17.34,17.34,0,0,1,7.3,3.37,6.78,6.78,0,0,1,2.64,5.33,6.43,6.43,0,0,1-1.6,4.37,10.27,10.27,0,0,1-4.11,2.82A14.05,14.05,0,0,1,370.89,163.68Z"/><path class="cls-2" d="M65.71,164.74q.84-9,.84-17t-.84-16.62c4,.25,7.61.38,10.87.38s6.71-.12,10.39-.35a4.63,4.63,0,0,1,.61,1.89,4.86,4.86,0,0,1-.61,1.93q-5.62-.37-10.41-.38c-1.52,0-2.75,0-3.7,0q-.4,5-.47,10.36,2.6.22,6,.23t7.52-.4a5,5,0,0,1,.61,2,4.32,4.32,0,0,1-.63,1.88q-4.08-.37-7.5-.38t-6,.24v.25q0,7.13.8,15.61C70.72,164.43,68.24,164.55,65.71,164.74Z"/><path class="cls-2" d="M98.92,164.67H91.77q.63-6.61.63-12.52t-.63-12.56h7.15q-.61,6.66-.61,12.56T98.92,164.67ZM95.36,137a3.42,3.42,0,0,1-2.52-1,3.11,3.11,0,0,1,0-4.57,3.42,3.42,0,0,1,2.52-1,3.38,3.38,0,0,1,2.49,1,3.11,3.11,0,0,1,0,4.57A3.38,3.38,0,0,1,95.36,137Z"/><path class="cls-2" d="M118.07,164.72c-1.36-.1-2.48-.15-3.35-.15s-2,.05-3.43.15a118.75,118.75,0,0,0-9.89-25q4.17.28,7.71.33,1.62,6.21,3.18,11.14a67.28,67.28,0,0,0,2.38,6.72,72.3,72.3,0,0,0,2.46-6.93q1.55-4.89,3.12-10.93,3.72,0,7.73-.33A119.1,119.1,0,0,0,118.07,164.72Z"/><path class="cls-2" d="M141.6,165.11a10.68,10.68,0,0,1-6.06-1.8,12.84,12.84,0,0,1-4.27-4.74,14.2,14.2,0,0,1,0-12.9,12.73,12.73,0,0,1,4.27-4.73,10.67,10.67,0,0,1,6.06-1.79,10.91,10.91,0,0,1,6.05,1.82,12.3,12.3,0,0,1,4.35,4.95,14.24,14.24,0,0,1,1.46,6.51l-.05,1.48q-8.17.33-16.66.91a11.58,11.58,0,0,0,1.79,5.13q1.44,2.16,3.06,2.16a2.5,2.5,0,0,0,1.45-.44,5.2,5.2,0,0,0,1.2-1.15,7.8,7.8,0,0,0,.86-1.36,13,13,0,0,0,.61-1.41q3.59-.09,6.8-.28c-.47.85-.85,1.51-1.15,2a13.06,13.06,0,0,1-3.26,3.5,11.09,11.09,0,0,1-2.82,1.52A10.2,10.2,0,0,1,141.6,165.11Zm-5-13.78c4.62-.09,8-.19,10.08-.28a14.52,14.52,0,0,0-.85-4.36,9,9,0,0,0-1.91-3.37,3.24,3.24,0,0,0-2.28-1.17,3.28,3.28,0,0,0-2.33,1.21,9.27,9.27,0,0,0-1.93,3.51A14.91,14.91,0,0,0,136.56,151.33Z"/><line class="cls-4" x1="76.97" y1="259.07" x2="340.74" y2="259.07"/><line class="cls-5" x1="124.9" y1="216.15" x2="295.32" y2="216.15"/><line class="cls-6" x1="96.39" y1="236.82" x2="323.82" y2="236.82"/></g></g></svg>